<svg version="1.2" xmlns="http://www.w3.org/2000/svg" viewBox="0 0 1254 1254" preserveAspectRatio="xMidYMid meet" baseProfile="tiny-ps" xml:space="preserve"><title>Jenoptiks</title>
<path d="M0 0 C413.82 0 827.64 0 1254 0 C1254 413.82 1254 827.64 1254 1254 C840.18 1254 426.36 1254 0 1254 C0 840.18 0 426.36 0 0 Z " fill="#90D5FB" transform="translate(0,0)"/>
<path d="M0 0 C295.35 0 590.7 0 895 0 C895 413.49 895 826.98 895 1253 C893.35 1251.35 891.7 1249.7 890 1248 C889.13375 1247.525625 888.2675 1247.05125 887.375 1246.5625 C884.25427885 1244.50939398 883.64020028 1242.35086262 882 1239 C880.55298803 1236.59585716 879.00232035 1234.26627242 877.4375 1231.9375 C876.99913818 1231.28193115 876.56077637 1230.6263623 876.10913086 1229.95092773 C872.85852202 1225.14439253 869.41180835 1220.54916014 865.82421875 1215.98828125 C862.00382676 1211.09675131 858.51844482 1206.00247992 855.03320312 1200.86914062 C851.6244671 1195.86421227 848.0478866 1191.01639563 844.3828125 1186.1953125 C840.95526391 1181.59902603 837.67089873 1176.90549995 834.37573242 1172.21386719 C830.95448755 1167.34464698 827.48535314 1162.51474885 823.97265625 1157.7109375 C821.73328556 1154.6334657 819.52094534 1151.5371796 817.3125 1148.4375 C813.44063042 1143.00332351 809.53826973 1137.59192536 805.625 1132.1875 C800.87673028 1125.62672246 796.18410551 1119.0295022 791.52661133 1112.40405273 C787.83082145 1107.15502156 784.08089626 1101.94708902 780.3125 1096.75 C775.89636971 1090.65621916 771.55856442 1084.52057724 767.29296875 1078.3203125 C759.96653814 1067.68423385 752.43433987 1057.19314929 744.85864258 1046.73388672 C739.6738039 1039.56749725 734.57191745 1032.34419056 729.48388672 1025.10888672 C726.99351226 1021.56958851 724.49648152 1018.03499187 722 1014.5 C719.00845651 1010.26400553 716.01821172 1006.02713391 713.03515625 1001.78515625 C707.88464647 994.4663674 702.69413619 987.18051126 697.4375 979.9375 C692.8445723 973.6062105 688.3602618 967.21172252 683.94848633 960.75317383 C678.41885079 952.66629546 672.70448219 944.71472879 666.94140625 936.79296875 C661.27928333 929.00057614 655.7132759 921.16383422 650.3125 913.1875 C646.64421956 907.77254911 642.91674645 902.45551337 638.875 897.3125 C634.79583372 892.11008504 631.0276125 886.75758477 627.3137207 881.29003906 C623.81460734 876.15092612 620.21559942 871.09316636 616.5625 866.0625 C612.33278032 860.23720106 608.13956477 854.38973584 604 848.5 C599.87622425 842.63502915 595.70685618 836.80566138 591.5 831 C587.29314076 825.1943344 583.12404728 819.36478281 579 813.5 C573.28648728 805.37802481 567.48052298 797.32506114 561.65429688 789.28369141 C557.25670874 783.21299492 552.86729176 777.13639255 548.48291016 771.05615234 C547.54565531 769.75658693 546.60789574 768.45738525 545.66943359 767.15869141 C540.52324973 760.0327427 535.50529938 752.83115266 530.5625 745.5625 C524.50287588 736.65567898 518.19164046 727.95939606 511.75097656 719.32568359 C510.60105614 717.78241811 509.45661893 716.23507139 508.3125 714.6875 C507.66925781 713.82511719 507.02601563 712.96273437 506.36328125 712.07421875 C505 710 505 710 505 708 C503.68 708.66 502.36 709.32 501 710 C501 594.83 501 479.66 501 361 C420.15 361 339.3 361 256 361 C254.02 357.535 254.02 357.535 252 354 C251.10127218 352.65213665 250.17902178 351.31931665 249.22265625 350.01171875 C248.71597412 349.3148999 248.20929199 348.61808105 247.68725586 347.90014648 C246.88300171 346.80488647 246.88300171 346.80488647 246.0625 345.6875 C244.89837683 344.08858583 243.73431609 342.48962622 242.5703125 340.890625 C241.68134277 339.67342773 241.68134277 339.67342773 240.77441406 338.43164062 C237.98440409 334.60823675 235.20972677 330.77380958 232.4375 326.9375 C231.90157227 326.1962085 231.36564453 325.45491699 230.81347656 324.69116211 C226.60474095 318.8600186 222.44756656 312.99366784 218.30834961 307.11303711 C215.2228606 302.72946904 212.12109855 298.35827949 209 294 C205.37170227 288.93347123 201.77426545 283.84600182 198.1875 278.75 C193.4619762 272.03926904 188.67201018 265.37759077 183.85620117 258.73144531 C179.69744444 252.98470946 175.59971025 247.19721326 171.51953125 241.39453125 C167.88545434 236.2343328 164.20328599 231.1107106 160.5 226 C156.2931417 220.1943357 152.12396165 214.3648422 148 208.5 C143.28962914 201.80217362 138.51683279 195.15192553 133.71484375 188.51953125 C130.46049257 184.02431235 127.22008575 179.51982227 124 175 C120.18828321 169.65094803 116.34884962 164.32239004 112.5 159 C107.3724938 151.90852978 102.27142162 144.79895095 97.19287109 137.67236328 C95.99098664 135.98736359 94.78686659 134.30398448 93.58203125 132.62109375 C89.0923015 126.34801825 84.62804256 120.05799965 80.1875 113.75 C75.4619186 107.03930892 70.67201083 100.37759166 65.85620117 93.73144531 C62.20049965 88.67985121 58.58669807 83.60077929 55 78.5 C50.28962914 71.80217362 45.51683279 65.15192553 40.71484375 58.51953125 C37.05744564 53.46758566 33.42252265 48.40043078 29.80371094 43.32080078 C26.97956107 39.36087613 24.13476243 35.41632767 21.28222656 31.47680664 C16.24787436 24.52231038 11.22829651 17.55725498 6.25 10.5625 C5.73646973 9.84666748 5.22293945 9.13083496 4.69384766 8.39331055 C4.22253418 7.72855713 3.7512207 7.06380371 3.265625 6.37890625 C2.64349121 5.50600952 2.64349121 5.50600952 2.00878906 4.61547852 C1 3 1 3 0 0 Z " fill="#037DF8" transform="translate(359,0)"/>
<path d="M0 0 C0.33 0 0.66 0 1 0 C1.10957031 0.60328125 1.21914063 1.2065625 1.33203125 1.828125 C1.49058594 2.62734375 1.64914063 3.4265625 1.8125 4.25 C1.96332031 5.03890625 2.11414063 5.8278125 2.26953125 6.640625 C2.86168734 9.05783058 2.86168734 9.05783058 4.48510742 10.86987305 C6.13637337 13.19175788 6.53407665 14.65274173 6.96875 17.44140625 C8.08740078 23.72350143 9.77943973 29.79671112 11.5 35.9375 C12.01904907 37.80486816 12.01904907 37.80486816 12.54858398 39.70996094 C15.75744603 51.23277852 19.05050783 62.73182808 22.34643555 74.22998047 C26.32506328 88.11095567 30.23904962 102.00963072 34.0859375 115.92773438 C37.45197548 128.09514035 40.90297669 140.23745869 44.375 152.375 C44.6714743 153.41238312 44.96794861 154.44976624 45.27340698 155.51858521 C48.85776091 168.05995855 52.45655976 180.59709824 56.07421875 193.12890625 C56.40903259 194.28874023 56.74384644 195.44857422 57.08880615 196.64355469 C58.70310684 202.23407405 60.31898449 207.82413229 61.93701172 213.41357422 C64.79874226 223.30781217 67.62973366 233.20817145 70.36943054 243.13693237 C71.79757056 248.30289862 73.29981744 253.43979841 74.875 258.5625 C77.49452709 267.18200376 79.92475568 275.84787701 82.328125 284.52978516 C84.23283304 291.36989115 86.26154705 298.15939349 88.375 304.9375 C91.54122472 315.13172311 94.25827728 325.42805911 96.94567871 335.75558472 C99.96309242 347.32903478 103.26578374 358.77828316 106.76074219 370.21728516 C109.20608735 378.25306226 111.48052099 386.31647494 113.625 394.4375 C115.99681898 403.41367232 118.55963571 412.30385681 121.30297852 421.1730957 C124.73794642 432.31019714 127.89721606 443.52493536 131.07421875 454.73779297 C132.1551754 458.54679686 133.24569222 462.35300324 134.33740234 466.15893555 C136.73902196 474.53387642 139.09773944 482.92007698 141.4375 491.3125 C143.99417999 500.47639363 146.62106817 509.61735409 149.29785156 518.74682617 C152.58642176 529.972976 155.79023761 541.22318553 158.99472046 552.47357178 C159.95260146 555.83373029 160.91293453 559.1931782 161.8737793 562.55249023 C163.89753374 569.63494663 165.90765799 576.72120586 167.9140625 583.80859375 C168.67396349 586.49148589 169.43402872 589.1743315 170.1940918 591.85717773 C170.48912204 592.89862473 170.48912204 592.89862473 170.7901125 593.96111107 C179.80500839 625.78253512 188.86595517 657.59057469 197.96453857 689.38816833 C199.70234992 695.46153423 201.43867489 701.53531904 203.17236328 707.60986328 C203.52917679 708.85981583 203.8859903 710.10976837 204.25361633 711.39759827 C204.92641938 713.75480595 205.59895771 716.11208922 206.27116394 718.46946716 C208.32199905 725.65383879 210.40088093 732.82959457 212.5 740 C217.85835012 758.32395705 223.08634276 776.68442238 228.21484375 795.07397461 C230.98579879 804.99054548 233.81956584 814.88889346 236.6552124 824.78710938 C239.30458544 834.03626211 241.92701377 843.29174029 244.5 852.5625 C247.68663288 864.03514691 251.05259081 875.45356004 254.44921875 886.86547852 C256.73582859 894.56715044 258.90094033 902.28690574 260.94799805 910.05664062 C262.97546114 917.70918324 265.1586634 925.31980776 267.3125 932.9375 C267.5539978 933.79305481 267.79549561 934.64860962 268.04431152 935.53009033 C271.16911442 946.59888357 274.33319548 957.65472684 277.57739258 968.68920898 C279.60818376 975.61072575 281.56556693 982.55098278 283.5 989.5 C285.68631655 997.34618639 287.90269192 1005.1818966 290.1875 1013 C290.60020142 1014.41236938 290.60020142 1014.41236938 291.02124023 1015.85327148 C292.4689386 1020.79729798 293.92259852 1025.73954373 295.38183594 1030.68017578 C306.21704278 1067.36662124 306.21704278 1067.36662124 309.99121094 1082.23657227 C312.42604501 1091.79624568 315.23075499 1101.24171942 318.02734375 1110.70068359 C319.80573134 1116.73309573 321.55893827 1122.77283404 323.3125 1128.8125 C323.49912201 1129.45478546 323.68574402 1130.09707092 323.87802124 1130.75881958 C327.20951223 1142.2273752 330.4946838 1153.70892904 333.76818848 1165.19415283 C336.33558669 1174.20113505 338.92410325 1183.20099363 341.5625 1192.1875 C344.76239734 1203.08840701 347.8366797 1214.02366996 350.89282227 1224.96557617 C351.0751088 1225.61695053 351.25739532 1226.26832489 351.44520569 1226.93943787 C351.97180724 1228.82225264 352.49666718 1230.70555426 353.02148438 1232.58886719 C354.08906341 1236.31047752 355.25365369 1239.99285846 356.49316406 1243.66064453 C357 1246 357 1246 357 1253 C239.19 1253 121.38 1253 0 1253 C0 839.51 0 426.02 0 0 Z " fill="#C4EAFA" transform="translate(0,1)"/>
<path d="M0 0 C0.66 0 1.32 0 2 0 C3.27758789 1.55371094 3.27758789 1.55371094 4.72265625 3.734375 C5.25665039 4.53020996 5.79064453 5.32604492 6.34082031 6.14599609 C6.90897461 7.00531738 7.47712891 7.86463867 8.0625 8.75 C12.51539977 15.38028189 17.06387146 21.85188939 21.90625 28.203125 C24.88885624 32.18735274 27.68062182 36.29519319 30.49609375 40.3984375 C33.37145815 44.56147016 36.3420741 48.65451873 39.3125 52.75 C43.58264922 58.63853329 47.8167704 64.549394 52 70.5 C58.25419956 79.3908547 64.62115696 88.1983323 71 97 C77.88109927 106.49469187 84.73060699 116.00764989 91.47631836 125.59912109 C95.15521482 130.82253699 98.87949909 136.01166948 102.625 141.1875 C103.17285156 141.94490479 103.72070312 142.70230957 104.28515625 143.48266602 C105.35704856 144.96439005 106.42898739 146.44608042 107.50097656 147.92773438 C113.58051177 156.33214722 119.5509382 164.79091009 125.375 173.375 C129.88239916 180.01124094 134.54764501 186.48309973 139.40527344 192.86621094 C145.30266493 200.65076771 150.82780861 208.69435604 156.40283203 216.7109375 C158.60250801 219.86351499 160.82603162 222.99844753 163.0625 226.125 C163.64777466 226.94339355 163.64777466 226.94339355 164.24487305 227.77832031 C166.52475292 230.95911671 168.8181346 234.12991217 171.1171875 237.296875 C176.79276066 245.1196211 182.39408546 252.97674325 187.83789062 260.96264648 C191.82374824 266.7897345 195.95001692 272.50929205 200.09594727 278.22314453 C208.80422119 290.23092239 217.28375651 302.40012204 225.78662109 314.55371094 C234.74274859 327.35240952 243.76878333 340.09413124 252.92578125 352.75 C260.03468282 362.57527558 267.02867285 372.47014029 273.9375 382.4375 C278.83648541 389.50377064 283.78729062 396.51591707 288.91113281 403.4206543 C293.39662317 409.48614604 297.69775914 415.67803845 302.01123047 421.86645508 C305.65105104 427.08467171 309.33511861 432.26379811 313.09765625 437.39453125 C315.31712858 440.43434243 317.50380014 443.49697102 319.6875 446.5625 C327.67375085 457.76608693 335.74316952 468.91011408 343.84375 480.03125 C347.30950798 484.80294577 350.75862939 489.58665232 354.20947266 494.36914062 C357.25403649 498.58728742 360.30745703 502.79854036 363.375 507 C366.38948044 511.1393809 369.34784273 515.3141718 372.26953125 519.51953125 C373.46469064 521.23268298 374.67117133 522.93797236 375.88671875 524.63671875 C378.41491389 528.18255218 380.75963771 531.49154131 382.625 535.4375 C384.29339248 538.5467769 385.98887889 539.26860536 389 541 C390.04717133 542.63744007 391.05351117 544.30237323 392 546 C346.54630452 546.27465376 301.09269686 546.48610905 255.6383352 546.61278395 C250.27231651 546.62779247 244.90629945 546.64332434 239.5402832 546.65917969 C238.47200391 546.66232741 237.40372461 546.66547514 236.30307322 546.66871825 C219.00447442 546.72093735 201.70635405 546.81555342 184.4080391 546.92583355 C166.65892072 547.03804408 148.91005294 547.10470349 131.1605944 547.12906194 C120.20750022 547.14552964 109.25575829 547.19754065 98.30308037 547.2949976 C90.79281235 547.35842067 83.28324354 547.37760388 75.77272714 547.36201653 C71.43863945 547.35432766 67.10691439 547.36612288 62.77324677 547.4304657 C58.80236558 547.48899104 54.83542759 547.49175093 50.86436247 547.45078674 C49.43075398 547.44572722 47.99689673 547.46086495 46.56377596 547.49859819 C40.45044004 547.65015538 35.83678638 547.71744625 31.2251395 543.40542841 C28.92069177 540.36274394 26.94327177 537.28187481 25 534 C23.80162994 532.34151525 22.58776704 530.69391591 21.34765625 529.06640625 C20.2515559 527.56586934 19.15648011 526.0645834 18.0625 524.5625 C17.21848633 523.4187793 17.21848633 523.4187793 16.35742188 522.25195312 C13.71901777 518.62375346 11.36830965 515.32867771 10 511 C9.34 511 8.68 511 8 511 C6.80859375 509.48828125 6.80859375 509.48828125 5.4375 507.3125 C-3.58768913 493.34081298 -13.47661374 479.95637332 -23.265625 466.515625 C-28.81722564 458.87871955 -34.26633136 451.19164872 -39.5625 443.375 C-44.05429096 436.74861635 -48.70936711 430.28956416 -53.55102539 423.9152832 C-58.70867804 417.10996458 -63.60965255 410.13239294 -68.50439453 403.13671875 C-70.97503498 399.60700194 -73.45501793 396.08389553 -75.9375 392.5625 C-76.43137207 391.8617334 -76.92524414 391.1609668 -77.43408203 390.43896484 C-81.04379963 385.32782924 -84.70132838 380.2527979 -88.375 375.1875 C-93.70237209 367.84206212 -98.92105699 360.42510221 -104.11181641 352.98266602 C-107.71520621 347.82084813 -111.36343031 342.69795994 -115.0859375 337.62109375 C-117.37093654 334.49204405 -119.62493915 331.34172243 -121.875 328.1875 C-122.29628174 327.59718994 -122.71756348 327.00687988 -123.15161133 326.39868164 C-125.26087172 323.44186089 -127.36766289 320.48329715 -129.47265625 317.5234375 C-130.2942103 316.36974856 -131.1158248 315.21610266 -131.9375 314.0625 C-132.34073486 313.4950708 -132.74396973 312.9276416 -133.15942383 312.34301758 C-135.41735204 309.17657914 -137.70831657 306.03908654 -140.0390625 302.92578125 C-140.5431665 302.2495874 -141.04727051 301.57339355 -141.56665039 300.87670898 C-142.5421386 299.57133477 -143.52286484 298.26985365 -144.50952148 296.97290039 C-146.72818063 293.99971093 -148.26322093 291.63123312 -149 288 C-149.66 288 -150.32 288 -151 288 C-152.19542478 286.31874988 -153.30712843 284.57751917 -154.375 282.8125 C-156.70971192 278.97102466 -159.17806596 275.49481665 -162 272 C-163.84610222 269.46106044 -165.63971958 266.88579936 -167.4375 264.3125 C-171.78969869 258.11368893 -176.18277693 251.94712386 -180.625 245.8125 C-184.83248901 240.00156797 -189.0226622 234.17931145 -193.18530273 228.33618164 C-197.22469579 222.67222348 -201.30666629 217.03921966 -205.38574219 211.40380859 C-208.20756481 207.50009146 -211.00644894 203.58437067 -213.75 199.625 C-216.16733858 196.14118851 -218.68561159 192.75204671 -221.25 189.375 C-225.27224749 184.04842437 -229.07028438 178.59437397 -232.83178711 173.08154297 C-243.03957288 157.32148058 -243.03957288 157.32148058 -255 143 C-254.9765625 140.3984375 -254.9765625 140.3984375 -254.625 137.375 C-254.51414062 136.37210938 -254.40328125 135.36921875 -254.2890625 134.3359375 C-254.19367188 133.56507813 -254.09828125 132.79421875 -254 132 C-255.19109375 132.1753125 -256.3821875 132.350625 -257.609375 132.53125 C-260.41279819 132.52138747 -261.58210645 132.37770217 -263.68554688 130.4765625 C-265.34241374 128.21622933 -266.80808224 125.90327272 -268.25 123.5 C-269.37426241 121.7413488 -270.5019295 119.98486997 -271.6328125 118.23046875 C-272.19387695 117.34665527 -272.75494141 116.4628418 -273.33300781 115.55224609 C-275.75938344 111.83734703 -278.41908222 108.32630607 -281.125 104.8125 C-285.02357098 99.6971331 -288.76598073 94.51108348 -292.375 89.1875 C-296.38740728 83.27107201 -300.54838008 77.48755458 -304.8125 71.75 C-309.8681917 64.94153763 -314.82268393 58.07128283 -319.6875 51.125 C-320.569823 49.86768066 -320.569823 49.86768066 -321.4699707 48.58496094 C-324.12687014 44.77571358 -326.60509614 40.99150643 -329 37 C-221.42 36.67 -113.84 36.34 -3 36 C-2.67 24.78 -2.34 13.56 -2 2 C-1.34 1.34 -0.68 0.68 0 0 Z " fill="#59BCFC" transform="translate(862,708)"/>
<path d="M0 0 C148.17 0 296.34 0 449 0 C449 119.79 449 239.58 449 363 C300.83 363 152.66 363 0 363 C0 243.21 0 123.42 0 0 Z " fill="#50B7FC" transform="translate(401,371)"/>
<path d="M0 0 C45.56399872 -0.32046913 91.12787813 -0.56714712 136.69278174 -0.71491461 C142.07253342 -0.73242443 147.45228288 -0.75054495 152.83203125 -0.76904297 C153.90303885 -0.77271531 154.97404645 -0.77638766 156.07750882 -0.78017129 C173.41755559 -0.84108434 190.75695233 -0.95146426 208.09661351 -1.08013915 C225.88979649 -1.21107794 243.68263914 -1.28882619 261.47628415 -1.31723893 C272.45568991 -1.3364461 283.43325846 -1.39709465 294.4120986 -1.51083054 C301.94158339 -1.58485746 309.47011903 -1.60719743 316.99994127 -1.58901928 C321.34461152 -1.58005338 325.68607347 -1.59374857 330.03017235 -1.66887665 C357.49794585 -2.12101171 357.49794585 -2.12101171 363.20241165 3.0670433 C365.98611806 6.43246167 367.46893314 9.93458304 369 14 C370.58801913 16.48632693 370.58801913 16.48632693 372.14453125 18.453125 C373.03398624 19.71865719 373.92331024 20.98428144 374.8125 22.25 C381.13198584 31.2220841 387.56012772 40.11412282 394 49 C400.88418987 58.49895635 407.73782772 68.01548338 414.48510742 77.61230469 C418.07401976 82.70927694 421.71429829 87.76690632 425.375 92.8125 C429.98135209 99.16418454 434.51342019 105.56319224 439 112 C445.08344836 120.72692183 451.28809005 129.3600389 457.53320312 137.97167969 C459.70247632 140.97140035 461.85233052 143.98479256 464 147 C467.75186758 152.2637686 471.52666043 157.51061338 475.3125 162.75 C475.85962646 163.50724365 476.40675293 164.2644873 476.97045898 165.04467773 C479.74370707 168.88165963 482.519188 172.71701171 485.296875 176.55078125 C493.11078136 187.34213581 500.81710934 198.20519513 508.47949219 209.10449219 C514.69182072 217.9377108 520.95198931 226.7329856 527.28491211 235.48022461 C530.94247639 240.53219074 534.57741137 245.59947661 538.19628906 250.67919922 C541.56744353 255.40611469 544.97024987 260.10974835 548.375 264.8125 C555.15702598 274.18686421 561.82525004 283.63921705 568.47949219 293.10449219 C574.64182418 301.86662146 580.85361364 310.58899676 587.13989258 319.26269531 C591.34223579 325.06847332 595.48279175 330.91555022 599.59472656 336.78564453 C602.08165848 340.32473996 604.60282079 343.83026452 607.1953125 347.29296875 C607.70819824 347.97979736 608.22108398 348.66662598 608.74951172 349.37426758 C609.72656812 350.67706244 610.70968241 351.97534306 611.69970703 353.26831055 C615 357.67012987 615 357.67012987 615 361 C541.08 361 467.16 361 391 361 C391 422.05 391 483.1 391 546 C390.34 546 389.68 546 389 546 C388.1028125 544.2365625 388.1028125 544.2365625 387.1875 542.4375 C383.95726763 536.62126699 379.99349922 531.41717992 376.02734375 526.09375 C372.94288749 521.94785735 369.96529169 517.73159301 367 513.5 C363.22477573 508.12226377 359.40254527 502.78607276 355.5 497.5 C351.12547795 491.5727975 346.85683141 485.57761727 342.62329102 479.54907227 C338.94025267 474.31153937 335.19980007 469.11830842 331.4375 463.9375 C326.91304015 457.70182337 322.50085621 451.4022046 318.16162109 445.03662109 C314.70745469 439.98688162 311.1548653 435.01469921 307.5625 430.0625 C303.08727369 423.88699647 298.61522997 417.70969406 294.1875 411.5 C293.66551025 410.77562744 293.14352051 410.05125488 292.60571289 409.30493164 C289 404.22974839 289 404.22974839 289 402 C288.34 402 287.68 402 287 402 C285.9140625 400.62890625 285.9140625 400.62890625 284.625 398.5625 C281.68339379 394.0079841 278.62653796 389.55349954 275.5 385.125 C274.98775879 384.39933838 274.47551758 383.67367676 273.94775391 382.92602539 C269.45218755 376.58638729 264.84118017 370.33526291 260.21508789 364.09057617 C255.88409638 358.23226184 251.65345176 352.31090747 247.47094727 346.34594727 C243.84133186 341.17412182 240.15046979 336.04973413 236.4375 330.9375 C232.37875423 325.34375805 228.39272043 319.71050721 224.5 314 C218.99524171 305.92521273 213.2694889 298.01799886 207.52832031 290.11035156 C205.27586388 287.00009063 203.04214442 283.87663799 200.8125 280.75 C200.4093457 280.18490723 200.00619141 279.61981445 199.59082031 279.03759766 C197.99707203 276.80287138 196.40431648 274.56743842 194.81152344 272.33203125 C193.60396613 270.637699 192.39589638 268.94373393 191.1875 267.25 C190.77959229 266.67813965 190.37168457 266.1062793 189.95141602 265.51708984 C187.63660918 262.27644942 185.31060316 259.04430366 182.97265625 255.8203125 C176.64415299 247.09254685 170.40049822 238.3133082 164.23583984 229.46899414 C159.80618409 223.12449275 155.29785036 216.84110339 150.75390625 210.578125 C146.62488938 204.88189004 142.56077904 199.14250194 138.51464844 193.38720703 C134.9256794 188.29049494 131.285561 183.23297417 127.625 178.1875 C122.34796055 170.91002979 117.17259903 163.56571269 112.02880859 156.19360352 C108.62703557 151.31957056 105.20885766 146.45870006 101.75 141.625 C101.35997803 141.07908203 100.96995605 140.53316406 100.56811523 139.97070312 C98.44612213 137.00496197 96.31024954 134.04984517 94.1640625 131.1015625 C93.69774414 130.45751465 93.23142578 129.8134668 92.75097656 129.14990234 C91.85325711 127.9103614 90.95173179 126.6735653 90.04589844 125.43994141 C87 121.22509647 87 121.22509647 87 119 C86.34 119 85.68 119 85 119 C83.6953125 117.15625 83.6953125 117.15625 82.125 114.5 C79.08952684 109.58542441 75.81135071 104.96956418 72.3125 100.375 C68.09337854 94.82540566 63.99257782 89.21481492 60 83.5 C55.57582801 77.17490131 51.01766085 70.97056015 46.36376953 64.81298828 C41.44812262 58.29802299 36.7154679 51.66050588 32 45 C30.21076053 42.47743355 28.41843404 39.95708531 26.625 37.4375 C26.22007324 36.86563965 25.81514648 36.2937793 25.39794922 35.70458984 C23.60274377 33.18202312 21.77292238 30.71768729 19.83203125 28.3046875 C17.52272372 25.39958848 15.80470795 22.22842201 14 19 C11.06959119 13.80518438 7.96759729 9.67549907 3.55078125 5.640625 C1.88229847 3.87547949 1.03768303 2.18028453 0 0 Z " fill="#53B9FC" transform="translate(0,0)"/>
<path d="M0 0 C59.4 0 118.8 0 180 0 C180 413.49 180 826.98 180 1253 C178 1252 178 1252 177.3671875 1250.21484375 C177.12355469 1249.08755859 177.12355469 1249.08755859 176.875 1247.9375 C176.70742187 1247.20402344 176.53984375 1246.47054688 176.3671875 1245.71484375 C176 1243 176 1243 176.05297852 1239.40844727 C176.0703054 1234.77537723 175.47378817 1230.32445763 174.78515625 1225.75 C174.58914574 1224.39907509 174.58914574 1224.39907509 174.38917542 1223.02085876 C174.10322928 1221.05414661 173.81473215 1219.08780405 173.52398682 1217.12179565 C172.88275002 1212.78405472 172.25445768 1208.44446388 171.62524414 1204.10496521 C171.28487596 1201.75816574 170.94387763 1199.41145759 170.60229492 1197.06483459 C168.75555157 1184.36575511 166.96924361 1171.65830828 165.18765259 1158.94995117 C164.62034573 1154.90336223 164.05184439 1150.85694163 163.4831543 1146.81054688 C161.83395657 1135.07438391 160.18696043 1123.33791377 158.54336739 1111.60096455 C157.76850176 1106.06783608 156.9927581 1100.53483108 156.21652031 1095.00189495 C155.76348727 1091.77227225 155.31107099 1088.54256646 154.85968018 1085.31271362 C152.3724516 1067.51591394 149.80062004 1049.73249054 147.20029259 1031.95192528 C144.97596112 1016.73855352 142.77615623 1001.52190043 140.60546875 986.30078125 C140.46672081 985.32794693 140.32797287 984.35511261 140.18502045 983.35279846 C139.47677483 978.38568035 138.76910186 973.41848087 138.06176758 968.45123291 C136.53674385 957.74193209 135.00923062 947.03298654 133.48046875 936.32421875 C133.25293726 934.73031059 133.25293726 934.73031059 133.02080917 933.10420227 C131.15119596 920.01109971 129.27091798 906.91964981 127.36328125 893.83203125 C127.26328764 893.14588053 127.16329403 892.4597298 127.06027031 891.75278664 C126.56776502 888.37380283 126.07495985 884.99486281 125.58206177 881.61593628 C121.2055385 851.61032103 116.99132996 821.58314865 112.8039093 791.55059814 C108.20391385 758.56297141 103.52274968 725.58808022 98.75 692.625 C98.60305695 691.61013519 98.45611389 690.59527039 98.30471802 689.5496521 C97.1453431 681.543329 95.98564811 673.53705218 94.82536316 665.5308609 C92.10728707 646.77430221 89.42256418 628.01308995 86.75 609.25 C84.39208944 592.69783031 82.02791482 576.14670129 79.62109375 559.6015625 C79.52172894 558.91840469 79.42236412 558.23524689 79.31998825 557.53138733 C78.81358372 554.05000087 78.30701588 550.56863817 77.80041504 547.08728027 C77.59610657 545.68318735 77.39180156 544.27909393 77.1875 542.875 C77.08667618 542.1821138 76.98585236 541.4892276 76.88197327 540.77534485 C72.87091206 513.20407557 68.96781957 485.6179631 65.08147049 458.02886963 C61.21610585 430.58919506 57.30693425 403.15668964 53.31339264 375.73537445 C50.46878186 356.20293135 47.67190697 336.66484233 44.95684814 317.11392212 C42.70703875 300.91975772 40.36925651 284.73959198 38 268.5625 C35.12633616 248.93660592 32.3495642 229.29989879 29.69726562 209.64282227 C26.89388699 188.92175567 23.90230989 168.2272892 20.93563843 147.52911377 C20.02940676 141.20623963 19.12444331 134.88318458 18.2199707 128.56005859 C18.07488666 127.54579615 17.92980261 126.5315337 17.78032207 125.48653603 C17.34179963 122.42071576 16.90331319 119.35489035 16.46484375 116.2890625 C16.31954916 115.27314655 16.17425457 114.25723061 16.02455711 113.21052933 C14.82388937 104.81521772 14.82388937 104.81521772 14.26063251 100.87625694 C13.52398409 95.72490523 12.78705722 90.57359363 12.04956055 85.42236328 C11.30812794 80.24352658 10.56746248 75.0645806 9.8272419 69.88557053 C9.55614163 67.98964176 9.2848074 66.09374642 9.01316643 64.19789505 C5.94855584 42.80689799 2.9863666 21.402294 0 0 Z " fill="#0057ED" transform="translate(1074,0)"/>
<path d="M0 0 C2.45235454 2.45235454 3.53601382 5.01402936 5 8.125 C5.97140377 10.16551151 5.97140377 10.16551151 8 12 C8.45263672 13.98730469 8.45263672 13.98730469 8.8046875 16.421875 C9.9413992 22.55004328 12.40094401 27.68002822 15.125 33.25 C20.45249417 44.46143203 25.39371156 55.80118778 30.1875 67.25 C30.53127686 68.06995453 30.87505371 68.88990906 31.22924805 69.73471069 C35.61045886 80.1925637 39.92664091 90.67571239 44.18774414 101.18310547 C46.48298936 106.81612486 48.93527316 112.35344006 51.53125 117.85546875 C53.28462473 121.60936944 54.96239285 125.39270791 56.625 129.1875 C56.90230957 129.8170459 57.17961914 130.4465918 57.46533203 131.09521484 C58.99849055 134.6041212 60.45749639 138.13339393 61.86328125 141.6953125 C64.27384638 147.76166984 66.91661333 153.72086487 69.5625 159.6875 C70.52242945 161.8579429 71.48207279 164.02851236 72.44140625 166.19921875 C72.86107666 167.14627686 73.28074707 168.09333496 73.71313477 169.0690918 C75.16277968 172.37073992 76.58312369 175.68416138 78 179 C78.48823242 180.13920898 78.97646484 181.27841797 79.47949219 182.45214844 C79.99672852 183.6590332 80.51396484 184.86591797 81.046875 186.109375 C81.33496536 186.78154053 81.62305573 187.45370605 81.9198761 188.14624023 C83.52693046 191.8958464 85.13369338 195.64557707 86.73999023 199.39550781 C89.85460296 206.66587383 92.97077434 213.93554418 96.09713745 221.2008667 C97.43300964 224.30558499 98.76751178 227.41089136 100.10192871 230.51623535 C100.73137666 231.97998781 101.36147976 233.44345876 101.99230957 234.90661621 C105.4098985 242.8340796 108.73575918 250.78509451 111.91387939 258.81169128 C113.8986216 263.80220418 116.05591076 268.69040278 118.3125 273.5625 C121.61445767 280.78698852 124.71223263 288.07265898 127.6875 295.4375 C130.38707377 302.11750062 133.19587406 308.6947557 136.2734375 315.2109375 C142.03682073 327.65898827 147.23520573 340.42134362 152.25 353.1875 C154.06975683 357.80440089 156.04638088 362.29513807 158.18359375 366.7734375 C162.32487145 375.55085389 166.07238697 384.483607 169.8125 393.4375 C170.51780058 395.11917076 171.22336988 396.80072884 171.92919922 398.48217773 C174.98456277 405.76582378 178.02644515 413.05497965 181.05078125 420.3515625 C181.49381592 421.41963135 181.93685059 422.4877002 182.39331055 423.58813477 C183.17487383 425.47550551 183.9539781 427.36389792 184.72973633 429.25366211 C186.64879904 433.89629895 188.67003688 438.4698637 190.80078125 443.01953125 C194.6438961 451.28125585 198.09098358 459.70199119 201.5625 468.125 C206.94872843 481.20010032 206.94872843 481.20010032 212.69262695 494.12060547 C215.34001034 499.9512758 217.82997494 505.85167366 220.34643555 511.73974609 C221.29925485 513.96901096 222.25395534 516.19746229 223.20898438 518.42578125 C226.46886628 526.03859756 229.70354506 533.66146856 232.91015625 541.296875 C235.74665239 548.04922538 238.61490534 554.787251 241.5078125 561.515625 C242.07634193 562.83826355 242.07634193 562.83826355 242.65635681 564.18762207 C244.20177691 567.78154805 245.74793266 571.37515348 247.29638672 574.96777344 C254.75565658 592.28026186 254.75565658 592.28026186 258.1796875 600.984375 C259.92580081 605.40104949 261.76168044 609.73295949 263.78125 614.03125 C268.79017036 624.7012939 273.20742286 635.63688149 277.75927734 646.50732422 C281.95698335 656.52453999 286.15024567 666.52214669 290.765625 676.35546875 C292.5206631 680.11547126 294.15074428 683.92165225 295.75 687.75 C296.07798584 688.53020508 296.40597168 689.31041016 296.74389648 690.11425781 C299.15294733 695.87983354 301.47030245 701.67947759 303.77099609 707.48901367 C307.37862711 716.5981115 311.06622579 725.59277069 315.296875 734.4296875 C320.91501207 746.20715833 325.95166012 758.22195867 330.8527832 770.31201172 C333.02762351 775.6652467 335.2904094 780.95122459 337.7265625 786.19140625 C339.36621495 789.80769495 340.90302502 793.46305983 342.4375 797.125 C346.02741331 805.68920145 349.63296839 814.24660138 353.25491333 822.79730225 C353.86916058 824.24810686 354.48284277 825.69915086 355.09591675 827.15045166 C359.18556083 836.84058687 359.18556083 836.84058687 363.48828125 846.4375 C365.89520478 851.6729622 368.07782206 856.98954247 370.25746155 862.32226562 C373.50180539 870.2521453 376.86867565 878.12775976 380.25 886 C380.57126862 886.74925751 380.89253723 887.49851501 381.22354126 888.27047729 C385.91589693 899.21303044 390.65837096 910.13181389 395.49902344 921.00976562 C397.76042006 926.10642637 399.90533021 931.2290396 401.95581055 936.41381836 C403.97045707 941.40356599 406.1573278 946.31975579 408.3125 951.25 C414.75025028 966.02686446 421.06523415 980.8556307 427.375 995.6875 C429.37229357 1000.38155393 431.36969399 1005.07556239 433.3671875 1009.76953125 C434.0939695 1011.47746857 434.0939695 1011.47746857 434.83543396 1013.21990967 C439.04493623 1023.11009674 443.26678726 1032.9949404 447.5 1042.875 C447.78929382 1043.55082123 448.07858765 1044.22664246 448.37664795 1044.92294312 C451.13781011 1051.37234745 453.91437783 1057.81403726 456.73936462 1064.23574829 C459.27281379 1069.99561491 461.74002835 1075.76820606 464.04248047 1081.625 C465.92805572 1086.30191893 468.01258078 1090.89339441 470.0625 1095.5 C476.73106387 1110.5683241 483.14724782 1125.74118435 489.48046875 1140.953125 C498.24967991 1162.15326023 498.24967991 1162.15326023 507.671875 1183.06640625 C509.53318026 1187.17770111 511.17453059 1191.3671667 512.82592773 1195.56616211 C514.60868797 1200.08035533 516.55661865 1204.4851201 518.59765625 1208.88671875 C520.77350509 1213.71722438 522.79162272 1218.61298265 524.82958984 1223.50292969 C527.61563898 1230.15944198 530.53838912 1236.74886581 533.56176758 1243.30102539 C536 1248.67422406 536 1248.67422406 536 1252 C476.6 1252 417.2 1252 356 1252 C355.01 1247.05 354.02 1242.1 353 1237 C351.94672182 1233.07507233 350.86540714 1229.19733474 349.6875 1225.3125 C349.38118652 1224.2819751 349.07487305 1223.2514502 348.75927734 1222.18969727 C347.84645178 1219.12433353 346.92467596 1216.06180708 346 1213 C345.5089158 1211.36724728 345.01801607 1209.73443905 344.52734375 1208.1015625 C343.82042652 1205.74993048 343.11320856 1203.39839493 342.40429688 1201.04736328 C339.10440185 1190.07414094 335.93914154 1179.06126201 332.75540161 1168.05392456 C331.44910108 1163.54101078 330.13171551 1159.03145559 328.80859375 1154.5234375 C324.24633709 1138.95123469 319.87078731 1123.3370716 315.59442139 1107.68408203 C312.86259502 1097.6893777 310.09666965 1087.71612576 307.05908203 1077.80908203 C305.16825806 1071.62895172 303.41654737 1065.4146962 301.6875 1059.1875 C299.02639822 1049.60470262 296.28541406 1040.04720638 293.5 1030.5 C290.49035751 1020.18151875 287.5422381 1009.84823988 284.6640625 999.4921875 C282.3367036 991.14358814 279.92627538 982.82022025 277.5 974.5 C273.5720522 961.02597127 269.75781551 947.52247518 266 934 C262.2877504 920.65138658 258.52871616 907.32050917 254.62719727 894.02587891 C252.20367312 885.74781962 249.86878025 877.44655161 247.55249023 869.13793945 C245.74297495 862.64848618 243.91661616 856.16435329 242.0625 849.6875 C241.70357666 848.4336853 241.70357666 848.4336853 241.33740234 847.15454102 C240.55869889 844.43623707 239.77937367 841.71811186 239 839 C235.1931669 825.71824843 231.3910122 812.43598208 227.6875 799.125 C224.27493759 786.86902299 220.73035619 774.65187802 217.1706543 762.43798828 C214.59224009 753.57815113 212.06926525 744.70448274 209.58984375 735.81640625 C206.44820965 724.55741564 203.22871655 713.32234635 199.97674561 702.0947876 C198.34996986 696.4768236 196.72763167 690.85757864 195.10546875 685.23828125 C194.76892273 684.07246521 194.43237671 682.90664917 194.08563232 681.70550537 C183.92141586 646.47645086 173.90335023 611.20554049 163.95417786 575.91522217 C162.66829715 571.35722237 161.37285947 566.80215686 160.06640625 562.25 C158.28268377 556.02021451 156.53576107 549.78041258 154.79296875 543.5390625 C154.35650528 541.97640152 154.35650528 541.97640152 153.91122437 540.38217163 C152.70323894 536.0562851 151.49553877 531.73032052 150.28979492 527.40380859 C146.99669634 515.59041367 143.67302463 503.78708352 140.24609375 492.01171875 C139.96622116 491.04831573 139.68634857 490.08491272 139.397995 489.09231567 C137.64442454 483.09469263 135.7950286 477.13377884 133.875 471.1875 C131.6689576 464.30529143 129.74735592 457.39148582 127.95996094 450.38964844 C126.35669671 444.18110241 124.52529461 438.06101938 122.625 431.9375 C120.14262361 423.91565985 117.83882569 415.86682231 115.6875 407.75 C112.90465802 397.25806307 109.98918412 386.80960144 107 376.375 C106.78420288 375.6215329 106.56840576 374.8680658 106.34606934 374.09176636 C103.46772409 364.05030934 100.55290573 354.01987793 97.61108398 343.99682617 C94.99726059 335.05985088 92.49257574 326.09283213 89.9861145 317.12533569 C87.05876817 306.65997556 84.00879647 296.23677723 80.88574219 285.82788086 C78.22679443 276.90683165 75.81369747 267.93015019 73.43530273 258.9309082 C71.93822623 253.31740921 70.34179667 247.80099836 68.4375 242.3125 C66.42160117 236.4989079 64.82392871 230.65116733 63.3125 224.6875 C60.91593606 215.26935556 58.26863053 205.9393223 55.5 196.625 C51.15743437 182.00522095 46.9314823 167.35416338 42.75 152.6875 C42.45794678 151.66335999 42.16589355 150.63921997 41.86499023 149.58404541 C40.45040098 144.62272514 39.0369062 139.66109474 37.62426758 134.69921875 C36.56714906 130.98743395 35.50717521 127.27648698 34.4440918 123.56640625 C31.26698243 112.47711494 28.13685474 101.37571091 25.04608154 90.26205444 C20.91710239 75.419338 16.77131872 60.58130192 12.5965271 45.75140381 C12.1193058 44.05562619 11.64259256 42.35970551 11.16641235 40.66363525 C10.50560691 38.31050604 9.84291755 35.95791557 9.1796875 33.60546875 C8.89140831 32.57710655 8.89140831 32.57710655 8.5973053 31.52796936 C7.50023562 27.64661249 6.27658915 23.82526021 5 20 C4.45848926 17.39774005 4.00715178 14.79214442 3.5625 12.171875 C3.14621233 9.80805544 3.14621233 9.80805544 1 8 C0.43479997 5.34462628 0.26211802 2.70855287 0 0 Z " fill="#A6DEFA" transform="translate(1,2)"/>
<path d="M0 0 C13.77774542 -0.30170361 27.55470071 -0.53244212 41.3350811 -0.67355824 C47.7346684 -0.7413023 54.13199016 -0.83311921 60.53027344 -0.98071289 C66.70965811 -1.1223589 72.88686966 -1.19977277 79.06775284 -1.23340416 C81.42109516 -1.2573571 83.77432326 -1.30413752 86.12673569 -1.37449074 C105.54143477 -1.93183185 105.54143477 -1.93183185 110.62792969 2.83642578 C113.30797725 5.97014309 115.14908713 9.32744013 117 13 C117.93903474 14.38413437 118.8953634 15.75729 119.890625 17.1015625 C120.68006633 18.27403869 121.46654663 19.4485142 122.25 20.625 C126.35619347 26.69476564 130.62728268 32.61965379 135 38.5 C139.87073868 45.05190138 144.58243214 51.68330014 149.17016602 58.43579102 C152.50287933 63.32438601 156.0098224 68.05556134 159.5859375 72.76953125 C162.64793607 76.837765 165.60909677 80.97756625 168.5625 85.125 C169.0999585 85.87257568 169.63741699 86.62015137 170.19116211 87.39038086 C170.68624268 88.0891333 171.18132324 88.78788574 171.69140625 89.5078125 C172.13685791 90.13316895 172.58230957 90.75852539 173.04125977 91.40283203 C174 93 174 93 174 95 C176.64 95 179.28 95 182 95 C181.93039062 95.71285156 181.86078125 96.42570313 181.7890625 97.16015625 C181.36743221 102.66270946 181.36743221 102.66270946 182.984375 107.796875 C183.97610318 108.87774729 184.99961981 109.92980576 186.04296875 110.9609375 C188.55724303 113.58060052 190.6048142 116.47493246 192.6875 119.4375 C193.11063477 120.03449707 193.53376953 120.63149414 193.96972656 121.24658203 C197.7101944 126.54349547 201.37099446 131.89495682 205.03393555 137.24560547 C208.91823491 142.9088631 212.92365126 148.47326501 217 154 C225.21923615 165.1689073 233.39233461 176.36597849 241.3125 187.75 C246.77113672 195.57361985 252.40520628 203.27355862 258 211 C271.7516774 229.99114332 271.7516774 229.99114332 276.43359375 236.75 C277.60025881 238.42580817 278.78247221 240.09081275 279.97265625 241.75 C280.62105469 242.6575 281.26945312 243.565 281.9375 244.5 C282.52402344 245.3146875 283.11054687 246.129375 283.71484375 246.96875 C285 249 285 249 285 251 C285.66 251 286.32 251 287 251 C288.3046875 252.84375 288.3046875 252.84375 289.875 255.5 C292.9247591 260.44162212 296.22874528 265.07183167 299.75 269.6875 C303.89631291 275.13628892 307.89721802 280.65208179 311.75 286.3125 C315.34898801 291.59973827 319.00554871 296.82644191 322.7890625 301.984375 C332.51138401 315.24520928 342.02314935 328.65339067 351.47949219 342.10449219 C359.23495164 353.13186598 367.08877162 364.08391336 375 375 C383.9179532 387.30518765 392.73949604 399.67235245 401.47949219 412.10449219 C408.21718608 421.68472009 415.02318579 431.21156823 421.890625 440.69921875 C425.53933039 445.74149565 429.16688512 450.79858478 432.7734375 455.87109375 C434.20936846 457.88895462 435.65162168 459.90233857 437.1015625 461.91015625 C438.04128906 463.22306641 438.04128906 463.22306641 439 464.5625 C439.804375 465.67818359 439.804375 465.67818359 440.625 466.81640625 C442.08390461 469.13324624 443.06162985 471.43301627 444 474 C444.66 474 445.32 474 446 474 C447.375 475.94921875 447.375 475.94921875 449 478.6875 C451.77918734 483.19209948 454.74084859 487.40365484 458 491.5625 C470 506.90343501 470 506.90343501 470 509 C410.6 509 351.2 509 290 509 C286.7 503.06 283.4 497.12 280 491 C278.0498063 487.55721333 276.09600632 484.11817851 274.125 480.6875 C273.10545846 478.90755798 272.08592752 477.12760988 271.06640625 475.34765625 C270.55867676 474.46223145 270.05094727 473.57680664 269.52783203 472.66455078 C267.03651576 468.3196761 264.54875282 463.9727738 262.0625 459.625 C261.56806396 458.76052246 261.07362793 457.89604492 260.56420898 457.00537109 C256.91619793 450.62031924 253.29868481 444.21843261 249.6875 437.8125 C245.06641747 429.61919451 240.39491367 421.45649764 235.6875 413.3125 C230.33523025 404.0524335 224.9969821 394.7846564 219.6875 385.5 C219.34699615 384.90462433 219.00649231 384.30924866 218.65567017 383.6958313 C214.68009613 376.74044713 210.74052469 369.76721529 206.875 362.75 C202.57676488 354.95127065 198.09332028 347.26640711 193.59326172 339.58276367 C189.01982811 331.7666957 184.49265162 323.92518122 180 316.0625 C179.66444092 315.47531189 179.32888184 314.88812378 178.9831543 314.28314209 C173.64672548 304.93862323 168.38778694 295.55185633 163.1484375 286.15258789 C158.61844036 278.04942681 153.95300837 270.03109718 149.25390625 262.02514648 C144.43392899 253.79304046 139.75873059 245.48514678 135.11376953 237.15332031 C129.97016721 227.92921348 124.74067512 218.75648787 119.48535156 209.59570312 C117.94005783 206.89524899 116.40274374 204.1903769 114.8671875 201.484375 C109.955349 192.83739701 104.98488016 184.2632267 99.72265625 175.82421875 C97.56957585 172.29433864 95.59795324 168.68612767 93.64453125 165.04296875 C91.55285847 161.17262885 89.4050766 157.33530582 87.25 153.5 C86.86078369 152.80479248 86.47156738 152.10958496 86.07055664 151.39331055 C84.459499 148.52846498 82.82407944 145.73611916 81 143 C81.20995471 140.130619 81.80640438 137.56244621 82.7421875 134.84375 C85.62342442 126.3921217 86.77807568 117.46671133 83.3125 109 C79.89952491 102.5401475 75.68734815 99.35635624 68.93847656 96.80541992 C65.80902032 95.94765354 63.274485 95.95808282 60.04296875 96.015625 C54.63432983 95.61181541 54.63432983 95.61181541 52.06713867 93.13574219 C50.43417253 90.49241944 49.13638312 87.83940202 47.875 85 C46.87233102 82.96489276 45.86709621 80.93104778 44.859375 78.8984375 C44.37662109 77.89006836 43.89386719 76.88169922 43.39648438 75.84277344 C41.49871545 71.97955292 39.35250849 68.30483491 37.125 64.625 C36.31034389 63.25571608 35.49656845 61.88590788 34.68359375 60.515625 C34.25804199 59.80083984 33.83249023 59.08605469 33.39404297 58.34960938 C25.73260521 45.4365311 18.20974309 32.44105053 10.8125 19.375 C10.27197998 18.42157715 9.73145996 17.4681543 9.17456055 16.48583984 C2 3.76693643 2 3.76693643 2 1 C1.34 0.67 0.68 0.34 0 0 Z " fill="#7BCAFB" transform="translate(426,745)"/>
<path d="M0 0 C23.16527571 -0.39747175 46.32998788 -0.69706792 69.49798393 -0.88080692 C80.25600163 -0.96839723 91.01189858 -1.08775628 101.76855469 -1.2824707 C111.14645628 -1.45214602 120.52282218 -1.56164004 129.90221608 -1.59950441 C134.86762167 -1.62163545 139.82863513 -1.6734505 144.79262924 -1.79741096 C149.47106596 -1.91328816 154.14332935 -1.9483188 158.8230648 -1.92283058 C160.5349678 -1.9274881 162.24708796 -1.96106451 163.95774651 -2.02649307 C174.4891183 -2.40935619 174.4891183 -2.40935619 179 0 C183.20014309 4.20679203 185.67093084 9.55660689 188.05911565 14.92993939 C189.37744275 17.83042021 190.94396859 20.53274913 192.546875 23.28515625 C193.61589533 25.21020951 194.68359497 27.13599674 195.75 29.0625 C200.9938877 38.48289076 206.36352657 47.82039895 211.81933594 57.11938477 C216.33125234 64.82104195 220.73408646 72.57964727 225.10791016 80.36035156 C228.98325896 87.23918358 232.94220511 94.06524182 236.9375 100.875 C242.32896342 110.06798309 247.57003099 119.33599772 252.75195312 128.6484375 C256.72795153 135.7759798 260.80149832 142.83926359 264.9375 149.875 C270.00273794 158.49375204 274.91867637 167.18634276 279.75 175.9375 C284.1374132 183.88362992 288.57800298 191.7799665 293.22583008 199.57641602 C296.90848682 205.78025875 300.4246241 212.07380539 303.9375 218.375 C308.54663545 226.64157954 313.20561932 234.87334812 317.96557617 243.05395508 C321.25512847 248.70766693 324.51037646 254.38003967 327.75 260.0625 C332.30888366 268.05587227 336.89746197 276.03168816 341.5 284 C351.3968871 301.13973433 361.21473327 318.32284358 370.9296875 335.56640625 C372.87721757 339.02117113 374.83950779 342.46655562 376.8203125 345.90234375 C377.24481689 346.64315186 377.66932129 347.38395996 378.10668945 348.1472168 C378.88651141 349.50712903 379.67118831 350.86427374 380.46166992 352.21801758 C382.074364 355.04186217 383 356.6885497 383 360 C421.94 360 460.88 360 501 360 C501 360.33 501 360.66 501 361 C420.15 361 339.3 361 256 361 C254.02 357.535 254.02 357.535 252 354 C251.10127218 352.65213665 250.17902178 351.31931665 249.22265625 350.01171875 C248.71597412 349.3148999 248.20929199 348.61808105 247.68725586 347.90014648 C246.88300171 346.80488647 246.88300171 346.80488647 246.0625 345.6875 C244.89837683 344.08858583 243.73431609 342.48962622 242.5703125 340.890625 C241.68134277 339.67342773 241.68134277 339.67342773 240.77441406 338.43164062 C237.98440409 334.60823675 235.20972677 330.77380958 232.4375 326.9375 C231.90157227 326.1962085 231.36564453 325.45491699 230.81347656 324.69116211 C226.60474095 318.8600186 222.44756656 312.99366784 218.30834961 307.11303711 C215.2228606 302.72946904 212.12109855 298.35827949 209 294 C205.37170227 288.93347123 201.77426545 283.84600182 198.1875 278.75 C193.4619762 272.03926904 188.67201018 265.37759077 183.85620117 258.73144531 C179.69744444 252.98470946 175.59971025 247.19721326 171.51953125 241.39453125 C167.88545434 236.2343328 164.20328599 231.1107106 160.5 226 C156.2931417 220.1943357 152.12396165 214.3648422 148 208.5 C143.28962914 201.80217362 138.51683279 195.15192553 133.71484375 188.51953125 C130.46049257 184.02431235 127.22008575 179.51982227 124 175 C120.18828321 169.65094803 116.34884962 164.32239004 112.5 159 C107.3724938 151.90852978 102.27142162 144.79895095 97.19287109 137.67236328 C95.99098664 135.98736359 94.78686659 134.30398448 93.58203125 132.62109375 C89.0923015 126.34801825 84.62804256 120.05799965 80.1875 113.75 C75.4619186 107.03930892 70.67201083 100.37759166 65.85620117 93.73144531 C62.20049965 88.67985121 58.58669807 83.60077929 55 78.5 C50.28962914 71.80217362 45.51683279 65.15192553 40.71484375 58.51953125 C37.05744564 53.46758566 33.42252265 48.40043078 29.80371094 43.32080078 C26.97956107 39.36087613 24.13476243 35.41632767 21.28222656 31.47680664 C16.24787436 24.52231038 11.22829651 17.55725498 6.25 10.5625 C5.73646973 9.84666748 5.22293945 9.13083496 4.69384766 8.39331055 C4.22253418 7.72855713 3.7512207 7.06380371 3.265625 6.37890625 C2.64349121 5.50600952 2.64349121 5.50600952 2.00878906 4.61547852 C1 3 1 3 0 0 Z " fill="#14A3FD" transform="translate(359,0)"/>
<path d="M0 0 C23.16550707 -0.32733294 46.33063184 -0.57406014 69.49798393 -0.72537041 C80.25562816 -0.7975011 91.01183394 -0.89579833 101.76855469 -1.05615234 C111.1464517 -1.19588489 120.52330696 -1.28605811 129.90221608 -1.31723893 C134.86699941 -1.33546221 139.82880319 -1.37813916 144.79262924 -1.48022079 C149.47054397 -1.57563842 154.14426935 -1.60449362 158.8230648 -1.58350754 C160.53485762 -1.5873429 162.24679792 -1.61498517 163.95774651 -1.66887665 C176.53164756 -2.04532703 176.53164756 -2.04532703 180.66363573 1.3785224 C184.12495717 5.19651872 186.54310956 9.49525772 189 14 C190.02442719 15.50086417 191.06558035 16.99096588 192.14453125 18.453125 C193.03398624 19.71865719 193.92331024 20.98428144 194.8125 22.25 C201.13198584 31.2220841 207.56012772 40.11412282 214 49 C220.88418987 58.49895635 227.73782772 68.01548338 234.48510742 77.61230469 C238.07401976 82.70927694 241.71429829 87.76690632 245.375 92.8125 C249.98135209 99.16418454 254.51342019 105.56319224 259 112 C265.08344836 120.72692183 271.28809005 129.3600389 277.53320312 137.97167969 C279.70247632 140.97140035 281.85233052 143.98479256 284 147 C287.75186758 152.2637686 291.52666043 157.51061338 295.3125 162.75 C295.85962646 163.50724365 296.40675293 164.2644873 296.97045898 165.04467773 C299.74370707 168.88165963 302.519188 172.71701171 305.296875 176.55078125 C313.11078136 187.34213581 320.81710934 198.20519513 328.47949219 209.10449219 C334.69182072 217.9377108 340.95198931 226.7329856 347.28491211 235.48022461 C350.94247639 240.53219074 354.57741137 245.59947661 358.19628906 250.67919922 C361.56744353 255.40611469 364.97024987 260.10974835 368.375 264.8125 C375.15702598 274.18686421 381.82525004 283.63921705 388.47949219 293.10449219 C394.64182418 301.86662146 400.85361364 310.58899676 407.13989258 319.26269531 C411.34223579 325.06847332 415.48279175 330.91555022 419.59472656 336.78564453 C422.08165848 340.32473996 424.60282079 343.83026452 427.1953125 347.29296875 C427.70819824 347.97979736 428.22108398 348.66662598 428.74951172 349.37426758 C429.72656812 350.67706244 430.70968241 351.97534306 431.69970703 353.26831055 C435 357.67012987 435 357.67012987 435 361 C415.85417487 361.03123018 396.70834626 361.05117991 377.5625 361.0625 C376.84916299 361.0629343 376.13582599 361.06336861 375.40087271 361.06381607 C334.11858156 361.08826603 292.84269858 360.96991099 251.5625 360.5 C250.51130604 360.48804218 249.46011208 360.47608437 248.37706375 360.46376419 C235.91788715 360.32099639 223.45887162 360.16725754 211 360 C211 359.67 211 359.34 211 359 C242.35 359 273.7 359 306 359 C300.81296675 352.66029269 295.73766652 346.55189412 290.24609375 340.52734375 C287.93812402 337.93037607 285.74444137 335.26595987 283.5625 332.5625 C280.48663412 328.75912497 277.31246834 325.09917348 274 321.5 C269.83638802 316.97433481 265.90766588 312.30809671 262.05078125 307.51953125 C260.22643326 305.27818943 258.35127945 303.10226692 256.4375 300.9375 C254 298 254 298 254 296 C253.34 296 252.68 296 252 296 C250.6672812 294.53309441 249.41086131 292.99677499 248.1875 291.4375 C244.4311145 286.74051075 240.57962974 282.15616422 236.625 277.625 C229.11867654 269.00338886 221.67903354 260.33491922 214.5 251.4375 C210.85506925 246.95293341 207.01475014 242.70635841 203.08374023 238.47583008 C199.34039807 234.42571009 195.84654251 230.2179504 192.38671875 225.92578125 C186.46601358 218.66783007 180.2964179 211.60774699 174.125 204.5625 C173.33802734 203.66337891 173.33802734 203.66337891 172.53515625 202.74609375 C171.44376165 201.50473653 170.34681141 200.2682542 169.24609375 199.03515625 C168.69050781 198.40480469 168.13492188 197.77445313 167.5625 197.125 C166.82193359 196.29355469 166.82193359 196.29355469 166.06640625 195.4453125 C165 194 165 194 165 192 C164.34 192 163.68 192 163 192 C161.70958086 190.55235738 160.49232866 189.03910851 159.3125 187.5 C156.10706069 183.37453515 152.78236918 179.44150928 149.25 175.59375 C148 174 148 174 148 172 C147.01 171.67 146.02 171.34 145 171 C144.690625 170.195625 144.38125 169.39125 144.0625 168.5625 C143.29119909 165.88959134 143.29119909 165.88959134 141.1953125 165.15234375 C138.26636365 163.61490618 136.84219432 161.60274099 134.8125 159 C131.80880624 155.22448968 128.75707006 151.55939005 125.5 148 C112.60287303 133.80861909 112.60287303 133.80861909 111 129 C110.34 129 109.68 129 109 129 C107.58561594 127.42713316 106.24395599 125.78860004 104.9375 124.125 C101.88974135 120.31164438 98.79499659 116.60191191 95.5 113 C92.40444804 109.60401318 89.44848793 106.13828469 86.5625 102.5625 C83.48663412 98.75912497 80.31246834 95.09917348 77 91.5 C72.88621091 87.0301488 69.02912703 82.40955107 65.21484375 77.68359375 C63.04367173 75.05291443 60.79758643 72.52057576 58.5 70 C54.58108748 65.70008209 50.90829131 61.24080453 47.25 56.71875 C44.35288632 53.21807097 41.29929566 49.87660232 38.23828125 46.51953125 C35.97152842 43.96795083 33.82459913 41.34828468 31.6875 38.6875 C28.27578924 34.46602892 24.70696827 30.45911916 21 26.5 C16.45024969 21.63959818 12.14636437 16.64710308 7.98046875 11.44921875 C6.18363707 9.22710146 4.33047397 7.07757547 2.4375 4.9375 C0 2 0 2 0 0 Z " fill="#3BAEFC" transform="translate(180,0)"/>
<path d="M0 0 C147.51 0 295.02 0 447 0 C447 119.13 447 238.26 447 361 C433.14 361 419.28 361 405 361 C405 360.67 405 360.34 405 360 C418.53 360 432.06 360 446 360 C446 344.16 446 328.32 446 312 C445.34 312 444.68 312 444 312 C442.83007812 310.66162109 442.83007812 310.66162109 441.53125 308.7734375 C441.0472876 308.07782715 440.5633252 307.3822168 440.06469727 306.66552734 C439.29017212 305.53171631 439.29017212 305.53171631 438.5 304.375 C437.41576667 302.81222096 436.33112489 301.24972523 435.24609375 299.6875 C434.70194824 298.89988281 434.15780273 298.11226562 433.59716797 297.30078125 C431.28434814 293.96907625 428.92664393 290.67039044 426.5625 287.375 C425.41974609 285.77785156 425.41974609 285.77785156 424.25390625 284.1484375 C423.04811939 282.46409745 421.83857635 280.78224475 420.60498047 279.11816406 C417 274.21275685 417 274.21275685 417 272 C416.34 272 415.68 272 415 272 C414.1646875 270.4840625 414.1646875 270.4840625 413.3125 268.9375 C411.79508701 266.23017323 410.1229141 263.85947071 408.1875 261.4375 C406.47205174 259.02732191 406.01439586 258.16555234 405.75 255.125 C407.62914474 250.42713815 410.74087071 246.82926418 414 243 C412.22496094 243.20882812 412.22496094 243.20882812 410.4140625 243.421875 C398.31678703 244.41079145 398.31678703 244.41079145 394.19824219 241.90283203 C389.4049317 237.57616708 386.1557921 232.05193718 384 226 C383.34 226 382.68 226 382 226 C381.484375 225.030625 380.96875 224.06125 380.4375 223.0625 C378.2528514 219.23744858 375.64565942 215.87765613 372.91015625 212.43359375 C369.47277267 208.05426866 366.24827875 203.52037335 363 199 C361.89205078 197.46085937 361.89205078 197.46085937 360.76171875 195.890625 C357.00534638 190.65778201 353.27693731 185.40734409 349.6015625 180.1171875 C343.61574856 171.50532851 337.56560984 163.01223591 331.10546875 154.75 C328.71945392 151.63357246 326.538946 148.42825684 324.3984375 145.140625 C319.79748819 138.09783108 314.79961523 131.31797092 309.875 124.5 C309.32481201 123.73743896 308.77462402 122.97487793 308.20776367 122.18920898 C305.25757647 118.10521438 302.29238493 114.0332092 299.3046875 109.9765625 C298.41160889 108.75743164 298.41160889 108.75743164 297.50048828 107.51367188 C296.35554521 105.95131162 295.20566806 104.3925522 294.05029297 102.83789062 C293.53354004 102.13083984 293.01678711 101.42378906 292.484375 100.6953125 C291.79939941 99.7674292 291.79939941 99.7674292 291.10058594 98.82080078 C289.93187454 96.88729377 289.43011288 95.20722232 289 93 C305.53006625 92.53509189 321.5182137 95.3047952 337.7668457 98.03173828 C340.58913163 98.5044607 343.41264903 98.96927382 346.23632812 99.43359375 C348.05476598 99.73650842 349.87312826 100.03987718 351.69140625 100.34375 C352.52378311 100.48026978 353.35615997 100.61678955 354.21376038 100.75744629 C358.92170115 101.55457195 363.41800984 102.62808892 368 104 C369.75777466 104.42298968 371.5194147 104.83035742 373.28515625 105.21875 C374.22810547 105.42886719 375.17105469 105.63898438 376.14257812 105.85546875 C378.09291765 106.28597848 380.04343951 106.71566292 381.99414062 107.14453125 C386.77082726 108.21037645 391.37206521 109.3924677 396 111 C398.99094674 111.86629883 401.99554259 112.68195467 405 113.5 C410.04976085 114.87493488 415.0512448 116.28696935 420 118 C420.33 115.36 420.66 112.72 421 110 C419.1128125 109.63261719 419.1128125 109.63261719 417.1875 109.2578125 C411.56750903 108.00624665 406.35019519 105.972195 401 103.875 C365.27826082 90.24175921 328.53101835 81.96329111 290.77392578 76.4140625 C288.57438158 76.08573765 286.37827202 75.73441507 284.18359375 75.375 C246.10946423 69.27551492 205.69806107 70.58914999 167.4453125 74.5625 C162.93131552 75.03136072 158.5369115 75.07317599 154 75 C155.32 74.34 156.64 73.68 158 73 C157.20335937 72.07058594 156.40671875 71.14117187 155.5859375 70.18359375 C149.2109375 62.74609375 149.2109375 62.74609375 147.62011719 60.88232422 C146.51114918 59.59387586 145.39142646 58.31462783 144.26269531 57.04345703 C143.71452148 56.42196777 143.16634766 55.80047852 142.6015625 55.16015625 C142.10221191 54.60078369 141.60286133 54.04141113 141.08837891 53.46508789 C140 52 140 52 140 50 C139.34 50 138.68 50 138 50 C136.58561594 48.42713316 135.24395599 46.78860004 133.9375 45.125 C130.88974135 41.31164438 127.79499659 37.60191191 124.5 34 C121.40444804 30.60401318 118.44848793 27.13828469 115.5625 23.5625 C111.60395178 18.66475317 107.44683829 14.02603683 103.1640625 9.41015625 C98 3.65884477 98 3.65884477 98 1 C65.99 1 33.98 1 1 1 C1 10.9 1 20.8 1 31 C0.67 31 0.34 31 0 31 C0 20.77 0 10.54 0 0 Z " fill="#15A3FD" transform="translate(402,372)"/>
<path d="M0 0 C3.10460734 3.88075917 5.53272787 7.50444163 7.875 11.8125 C11.76693822 18.84341979 15.76163176 25.80944607 19.8125 32.75 C20.70557861 34.28043945 20.70557861 34.28043945 21.61669922 35.84179688 C26.02393638 43.37394957 30.50930134 50.85685606 35.01831055 58.32836914 C37.95593792 63.21182044 40.76717031 68.13654778 43.4453125 73.16796875 C45.54648717 76.99548542 47.77448781 80.74378557 50 84.5 C53.23623739 89.96865841 56.39560307 95.4598104 59.41015625 101.0546875 C65.66604344 112.64421807 72.17109748 124.0913444 78.75 135.5 C79.37575928 136.58547119 80.00151855 137.67094238 80.64624023 138.78930664 C83.93626791 144.48010627 87.26371645 150.14392262 90.67382812 155.76367188 C92.62650912 159.05648445 94.43744207 162.4218488 96.2578125 165.7890625 C105.80356175 183.38234923 115.62556128 200.84419861 125.99072266 217.96826172 C128.57078514 222.24477132 131.00473517 226.5791332 133.37109375 230.9765625 C139.3682295 242.10793676 145.60614291 253.09207119 152 264 C156.50369694 271.68359271 160.93794213 279.39493886 165.23779297 287.19433594 C173.33598905 301.88285656 181.66093137 316.44715453 190 331 C191.57743413 333.75967245 193.15430617 336.51966516 194.73095703 339.27978516 C196.72393054 342.76820227 198.71864531 346.25561466 200.71484375 349.7421875 C206.00198459 358.98055667 211.26792384 368.23032136 216.5 377.5 C225.69538881 393.78710592 235.00040124 410.00901742 244.3605957 426.2019043 C249.00883439 434.25430299 253.59038772 442.34241336 258.14941406 450.44555664 C262.67201829 458.46409789 267.31305386 466.41058494 271.96972656 474.35180664 C275.91727189 481.09949664 279.75062896 487.90048746 283.51538086 494.75146484 C286.79143385 500.6887583 290.25370642 506.49602861 293.796875 512.27734375 C296.12707005 516.14547836 298.2646711 520.11389155 300.41552734 524.08374023 C303.04978698 528.93215801 305.74285667 533.7474498 308.4375 538.5625 C309.34157593 540.17825928 309.34157593 540.17825928 310.26391602 541.82666016 C314.59465976 549.54500541 318.99821483 557.2186729 323.4375 564.875 C328.55366833 573.6988825 333.56736502 582.57225862 338.5 591.5 C351.3380886 614.71187943 364.54488201 637.771183 378.6484375 660.2421875 C379.02363525 660.84119873 379.39883301 661.44020996 379.78540039 662.05737305 C380.71059528 663.52576531 381.64570995 664.98789611 382.58203125 666.44921875 C384.1229892 669.22124503 385.00450786 671.99672202 386 675 C386.66 675.66 387.32 676.32 388 677 C388 678.32 388 679.64 388 681 C383.65630588 679.50217444 382.95687116 676.98329936 381 673 C379.55268068 670.59603706 378.00232437 668.2662784 376.4375 665.9375 C375.99913818 665.28193115 375.56077637 664.6263623 375.10913086 663.95092773 C371.85852202 659.14439253 368.41180835 654.54916014 364.82421875 649.98828125 C361.00382676 645.09675131 357.51844482 640.00247992 354.03320312 634.86914062 C350.6244671 629.86421227 347.0478866 625.01639563 343.3828125 620.1953125 C339.95526391 615.59902603 336.67089873 610.90549995 333.37573242 606.21386719 C329.95448755 601.34464698 326.48535314 596.51474885 322.97265625 591.7109375 C320.73328556 588.6334657 318.52094534 585.5371796 316.3125 582.4375 C312.44063042 577.00332351 308.53826973 571.59192536 304.625 566.1875 C299.87673028 559.62672246 295.18410551 553.0295022 290.52661133 546.40405273 C286.83082145 541.15502156 283.08089626 535.94708902 279.3125 530.75 C274.89636971 524.65621916 270.55856442 518.52057724 266.29296875 512.3203125 C258.96653814 501.68423385 251.43433987 491.19314929 243.85864258 480.73388672 C238.6738039 473.56749725 233.57191745 466.34419056 228.48388672 459.10888672 C225.99351226 455.56958851 223.49648152 452.03499187 221 448.5 C218.00845651 444.26400553 215.01821172 440.02713391 212.03515625 435.78515625 C206.88464647 428.4663674 201.69413619 421.18051126 196.4375 413.9375 C191.8445723 407.6062105 187.3602618 401.21172252 182.94848633 394.75317383 C177.41885079 386.66629546 171.70448219 378.71472879 165.94140625 370.79296875 C160.27928333 363.00057614 154.7132759 355.16383422 149.3125 347.1875 C145.64421956 341.77254911 141.91674645 336.45551337 137.875 331.3125 C133.79583372 326.11008504 130.0276125 320.75758477 126.3137207 315.29003906 C122.81460734 310.15092612 119.21559942 305.09316636 115.5625 300.0625 C111.33278032 294.23720106 107.13956477 288.38973584 103 282.5 C98.87622425 276.63502915 94.70685618 270.80566138 90.5 265 C86.29314076 259.1943344 82.12404728 253.36478281 78 247.5 C72.28648728 239.37802481 66.48052298 231.32506114 60.65429688 223.28369141 C56.25670874 217.21299492 51.86729176 211.13639255 47.48291016 205.05615234 C46.54565531 203.75658693 45.60789574 202.45738525 44.66943359 201.15869141 C39.52324973 194.0327427 34.50529938 186.83115266 29.5625 179.5625 C23.50287588 170.65567898 17.19164046 161.95939606 10.75097656 153.32568359 C9.60105614 151.78241811 8.45661893 150.23507139 7.3125 148.6875 C6.66925781 147.82511719 6.02601563 146.96273437 5.36328125 146.07421875 C4 144 4 144 4 142 C2.02 142.99 2.02 142.99 0 144 C0 96.48 0 48.96 0 0 Z " fill="#15A2FD" transform="translate(860,566)"/>
<path d="M0 0 C5.59359801 4.59747782 9.27679206 8.68063796 12.84765625 15.02734375 C17.33841552 22.7149147 22.73922881 29.83257359 28 37 C29.27160658 38.74943821 30.54243606 40.49944153 31.8125 42.25 C34.04114017 45.31709544 36.27677086 48.37866621 38.52734375 51.4296875 C43.87451505 58.68378307 49.12667064 65.994202 54.30102539 73.37255859 C58.18479321 78.89084158 62.16977233 84.3286899 66.1875 89.75 C70.30560447 95.31550952 74.40526095 100.88982622 78.375 106.5625 C79.08398438 107.57441406 79.79296875 108.58632812 80.5234375 109.62890625 C82 112 82 112 82 114 C82.66 114 83.32 114 84 114 C85.68931124 116.25856913 87.26097486 118.52368303 88.8125 120.875 C89.8092229 122.35679914 90.80799957 123.83721846 91.80859375 125.31640625 C92.33179199 126.09000488 92.85499023 126.86360352 93.39404297 127.66064453 C95.98209195 131.43058757 98.67891842 135.1194384 101.375 138.8125 C105.8870699 145.00821809 110.26606473 151.27802256 114.5625 157.625 C119.02431935 164.21095501 123.65781116 170.61685573 128.48071289 176.94189453 C132.32499171 182.01672101 135.93573192 187.22558191 139.5 192.5 C144.02843208 199.200974 148.72669934 205.72103542 153.62329102 212.15673828 C157.50890519 217.28592819 161.17192353 222.54073993 164.7878418 227.86230469 C168.78275128 233.72673203 172.92466447 239.47665531 177.09350586 245.21826172 C180.76916348 250.28457662 184.40069664 255.37919456 188 260.5 C192.10812783 266.34014484 196.25348286 272.15146612 200.4375 277.9375 C200.97616699 278.68241699 201.51483398 279.42733398 202.06982422 280.19482422 C204.81716726 283.99095912 207.56925338 287.78361295 210.32421875 291.57421875 C215.93002234 299.29760493 221.45342104 307.06184257 226.82763672 314.94824219 C230.92872559 320.94569363 235.17798298 326.83106871 239.4453125 332.7109375 C242.16115832 336.45334705 244.86308085 340.20126994 247.5 344 C252.88593203 351.74725199 258.46636333 359.35801685 264 367 C267.87308093 372.34874641 271.74392655 377.69904435 275.60205078 383.05859375 C276.4821008 384.28076591 277.36314432 385.50222389 278.24560547 386.72265625 C279.27269688 388.14498848 280.2929654 389.57224129 281.3125 391 C281.84488281 391.7425 282.37726563 392.485 282.92578125 393.25 C284 395 284 395 284 397 C284.66 397 285.32 397 286 397 C287.27906846 398.72043716 288.47210991 400.50508068 289.625 402.3125 C292.9061981 407.35822729 296.31691842 412.25199995 299.87890625 417.10546875 C305.82878977 425.22492306 311.63621517 433.43741899 317.3125 441.75 C322.88883301 449.9105116 328.67827825 457.90971054 334.48486328 465.90722656 C336.67152457 468.92753925 338.83713862 471.96262107 341 475 C344.7517927 480.26382325 348.52682438 485.51049487 352.3125 490.75 C352.86035156 491.50869385 353.40820312 492.2673877 353.97265625 493.04907227 C356.72901576 496.86442445 359.49055766 500.6758521 362.26171875 504.48046875 C368.01146045 512.38495794 373.68771606 520.33725332 379.25 528.375 C379.81138672 529.17800537 380.37277344 529.98101074 380.95117188 530.80834961 C381.46744141 531.55995361 381.98371094 532.31155762 382.515625 533.0859375 C382.97227539 533.7464209 383.42892578 534.4069043 383.89941406 535.08740234 C385.03358176 537.05835836 385.5636617 538.77813571 386 541 C386.66 541 387.32 541 388 541 C388 585.88 388 630.76 388 677 C385.54796354 674.54796354 384.24578623 672.94695729 382.609375 670.02734375 C382.15506104 669.22377441 381.70074707 668.42020508 381.23266602 667.59228516 C380.74338623 666.71620605 380.25410645 665.84012695 379.75 664.9375 C378.67125362 663.02695924 377.59179377 661.11682121 376.51171875 659.20703125 C375.94114746 658.19592285 375.37057617 657.18481445 374.78271484 656.14306641 C371.74319499 650.78415398 368.64954467 645.45662566 365.5625 640.125 C360.22455327 630.88951566 354.94095683 621.62524452 349.70336914 612.33251953 C346.15755968 606.04228731 342.58815628 599.7661662 339 593.5 C334.80923675 586.18015195 330.64556331 578.84553926 326.5 571.5 C318.05979008 556.54934533 309.54364408 541.64424574 300.92431641 526.79614258 C298.16222097 522.03026162 295.43803494 517.24548972 292.75 512.4375 C288.17892828 504.26221321 283.48203728 496.16056183 278.79223633 488.05297852 C274.63109623 480.8506664 270.5155712 473.62462572 266.4375 466.375 C261.97017413 458.43461533 257.41967582 450.54753249 252.8125 442.6875 C248.34117769 435.05750916 243.95078642 427.39361992 239.68237305 419.6484375 C235.05476356 411.25895023 230.28080419 402.95388333 225.51464844 394.64257812 C223.08869684 390.41006683 220.66960462 386.17364174 218.25 381.9375 C217.2500356 380.18747966 216.25003453 378.43748027 215.25 376.6875 C196.0703125 343.12304688 196.0703125 343.12304688 176.890625 309.55859375 C176.40899902 308.71578857 175.92737305 307.8729834 175.43115234 307.00463867 C174.47821259 305.33691283 173.52541276 303.66910702 172.57275391 302.0012207 C169.78365589 297.11866184 166.99095859 292.23818794 164.1953125 287.359375 C162.83813428 284.98981641 161.48141144 282.6199976 160.125 280.25 C159.61752228 279.36337173 159.61752228 279.36337173 159.09979248 278.45883179 C154.22491623 269.93760389 149.40615189 261.38677789 144.625 252.8125 C140.45073746 245.32689554 136.21001605 237.89344145 131.82666016 230.52856445 C127.47119009 223.17594341 123.33928122 215.69921697 119.18066406 208.23413086 C115.38904895 201.44159615 111.51276016 194.71032636 107.53808594 188.02368164 C104.68561124 183.20911018 101.94760319 178.34030829 99.25 173.4375 C95.37205013 166.39780167 91.37230325 159.43634161 87.3125 152.5 C86.72243164 151.49179199 86.13236328 150.48358398 85.52441406 149.44482422 C84.92467773 148.42018066 84.32494141 147.39553711 83.70703125 146.33984375 C74.33618685 130.32832157 65.10098946 114.24469089 56.05859375 98.04541016 C47.61643891 82.92545353 38.98113869 67.92197771 30.23071289 52.97851562 C27.33144942 48.02146357 24.45288018 43.05455 21.62109375 38.05859375 C21.08419922 37.11177734 20.54730469 36.16496094 19.99414062 35.18945312 C18.99064092 33.41538651 17.99038921 31.63947681 16.99414062 29.86132812 C14.90576615 26.16879687 12.78258897 22.59898986 10.2890625 19.1640625 C8.5405771 16.74721409 7.16400232 14.62439577 5.9375 11.9375 C4.70398849 9.34460846 3.38641914 6.98488865 1.75 4.625 C0 2 0 2 0 0 Z " fill="#7CCBFB" transform="translate(3,5)"/>
<path d="M0 0 C154.77 0 309.54 0 469 0 C469 126.39 469 252.78 469 383 C314.23 383 159.46 383 0 383 C0 256.61 0 130.22 0 0 Z M10 10 C10 129.79 10 249.58 10 373 C158.17 373 306.34 373 459 373 C459 253.21 459 133.42 459 10 C310.83 10 162.66 10 10 10 Z " fill="#F5FAFD" transform="translate(391,361)"/>
<path d="M0 0 C73.59 0 147.18 0 223 0 C223 0.33 223 0.66 223 1 C149.74 1 76.48 1 1 1 C1 64.36 1 127.72 1 193 C1.99 193.33 2.98 193.66 4 194 C5.31518555 195.49951172 5.31518555 195.49951172 6.63671875 197.4296875 C7.12720703 198.13673828 7.61769531 198.84378906 8.12304688 199.57226562 C8.63931641 200.33216797 9.15558594 201.09207031 9.6875 201.875 C10.77413045 203.44573407 11.86136951 205.01604728 12.94921875 206.5859375 C13.47563965 207.3500293 14.00206055 208.11412109 14.54443359 208.90136719 C16.32234185 211.46475186 18.15202292 213.98675118 20 216.5 C28.26696811 227.8154126 36.32037147 239.27727292 44 251 C44.33 248.69 44.66 246.38 45 244 C50.28 244 55.56 244 61 244 C60.979375 246.18238281 60.95875 248.36476563 60.9375 250.61328125 C60.94475055 252.76494076 60.96564845 254.91607497 60.98779297 257.06762695 C60.99582385 258.54450609 60.99002138 260.02153628 60.96923828 261.49829102 C60.94160627 263.64268083 60.96642994 265.78157129 61 267.92578125 C61 269.20880127 61 270.49182129 61 271.8137207 C62.10477039 277.62473608 62.10477039 277.62473608 70 287 C70.33 272.81 70.66 258.62 71 244 C83.87 244 96.74 244 110 244 C110 248.29 110 252.58 110 257 C99.11 257.495 99.11 257.495 88 258 C87.67 262.62 87.34 267.24 87 272 C93.93 272 100.86 272 108 272 C108 276.29 108 280.58 108 285 C101.07 285 94.14 285 87 285 C87 290.61 87 296.22 87 302 C89.34738281 301.87431641 89.34738281 301.87431641 91.7421875 301.74609375 C93.78644392 301.6429432 95.83071558 301.5400942 97.875 301.4375 C98.90753906 301.38142578 99.94007813 301.32535156 101.00390625 301.26757812 C101.99003906 301.21923828 102.97617187 301.17089844 103.9921875 301.12109375 C104.90339355 301.0739624 105.81459961 301.02683105 106.75341797 300.97827148 C109 301 109 301 111 302 C111.02685412 304.31243792 111.04632841 306.6249627 111.0625 308.9375 C111.07410156 310.22527344 111.08570313 311.51304687 111.09765625 312.83984375 C111 316 111 316 110 317 C108.65732587 317.08631874 107.31025678 317.10706473 105.96484375 317.09765625 C105.15595703 317.09443359 104.34707031 317.09121094 103.51367188 317.08789062 C102.66353516 317.07951172 101.81339844 317.07113281 100.9375 317.0625 C100.08349609 317.05798828 99.22949219 317.05347656 98.34960938 317.04882812 C96.23304337 317.03700373 94.11651315 317.01906769 92 317 C92.3609375 317.55429687 92.721875 318.10859375 93.09375 318.6796875 C93.5578125 319.40414063 94.021875 320.12859375 94.5 320.875 C95.19609375 321.95394531 95.19609375 321.95394531 95.90625 323.0546875 C97 325 97 325 97 327 C97.66 327 98.32 327 99 327 C100.5259897 328.92528518 101.92603281 330.85166965 103.3125 332.875 C104.20232207 334.14899868 105.09299196 335.4224055 105.984375 336.6953125 C106.46455078 337.38399414 106.94472656 338.07267578 107.43945312 338.78222656 C110.83415671 343.60661445 114.32520024 348.36265018 117.79614258 353.13232422 C118.59507935 354.23471436 118.59507935 354.23471436 119.41015625 355.359375 C119.88590088 356.01389648 120.36164551 356.66841797 120.85180664 357.34277344 C122 359 122 359 123 361 C157.32 361.33 191.64 361.66 227 362 C227 362.33 227 362.66 227 363 C152.09 363 77.18 363 0 363 C0 243.21 0 123.42 0 0 Z " fill="#7DCBFB" transform="translate(401,371)"/>
<path d="M0 0 C28.8761159 -0.04625868 57.75222291 -0.08196911 86.62836838 -0.10362434 C89.29521436 -0.10567738 91.96206032 -0.10774673 94.62890625 -0.10986328 C95.62320711 -0.11065021 95.62320711 -0.11065021 96.63759485 -0.11145304 C107.37580439 -0.12015968 118.11399254 -0.13593108 128.85218939 -0.15430559 C139.86756851 -0.17299744 150.88293581 -0.18396547 161.89832997 -0.18817699 C168.08676963 -0.19078878 174.27516077 -0.19694526 180.4635849 -0.21146011 C186.28455767 -0.2250029 192.10546179 -0.22922934 197.92644882 -0.22621536 C200.06624855 -0.22676701 202.2060505 -0.23076404 204.34583664 -0.23841095 C207.26097742 -0.24832046 210.17585695 -0.24598346 213.09100342 -0.24050903 C214.36921215 -0.24924756 214.36921215 -0.24924756 215.67324328 -0.25816262 C222.74411746 -0.22212307 222.74411746 -0.22212307 226 2 C225.34 2 224.68 2 224 2 C224.4964502 2.68437134 224.4964502 2.68437134 225.00292969 3.38256836 C231.04885898 11.72224749 237.07520714 20.0736943 243 28.5 C249.25379414 37.39107402 255.61652558 46.20173856 262 55 C262.42893555 55.59167969 262.85787109 56.18335938 263.29980469 56.79296875 C267.40091479 62.52701934 267.40091479 62.52701934 271.7109375 68.1015625 C273 70 273 70 273 73 C270.54158803 73.02745125 268.08349467 73.04705165 265.625 73.0625 C264.60599609 73.07506836 264.60599609 73.07506836 263.56640625 73.08789062 C259.89278752 73.10505707 256.33482379 72.95185881 252.6875 72.5078125 C244.28780943 71.60410944 235.81250643 71.80490354 227.375 71.8125 C226.45380371 71.81210724 225.53260742 71.81171448 224.58349609 71.81130981 C205.48080135 71.82101983 186.45449574 72.58799774 167.4453125 74.5625 C162.93131552 75.03136072 158.5369115 75.07317599 154 75 C155.32 74.34 156.64 73.68 158 73 C157.20335937 72.07058594 156.40671875 71.14117187 155.5859375 70.18359375 C149.2109375 62.74609375 149.2109375 62.74609375 147.62011719 60.88232422 C146.51114918 59.59387586 145.39142646 58.31462783 144.26269531 57.04345703 C143.71452148 56.42196777 143.16634766 55.80047852 142.6015625 55.16015625 C142.10221191 54.60078369 141.60286133 54.04141113 141.08837891 53.46508789 C140 52 140 52 140 50 C139.34 50 138.68 50 138 50 C136.58561594 48.42713316 135.24395599 46.78860004 133.9375 45.125 C130.88974135 41.31164438 127.79499659 37.60191191 124.5 34 C121.40444804 30.60401318 118.44848793 27.13828469 115.5625 23.5625 C111.60395178 18.66475317 107.44683829 14.02603683 103.1640625 9.41015625 C98 3.65884477 98 3.65884477 98 1 C65.99 1 33.98 1 1 1 C1 10.9 1 20.8 1 31 C0.67 31 0.34 31 0 31 C0 20.77 0 10.54 0 0 Z " fill="#3BADFC" transform="translate(402,372)"/>
<path d="M0 0 C32.67 0 65.34 0 99 0 C99 57.09 99 114.18 99 173 C96.68547987 169.91397316 94.78248335 167.02276879 92.8828125 163.6953125 C91.98079102 162.12233398 91.98079102 162.12233398 91.06054688 160.51757812 C90.42181641 159.39802734 89.78308594 158.27847656 89.125 157.125 C87.78577018 154.78275284 86.4444651 152.44170578 85.1015625 150.1015625 C84.76227722 149.51018494 84.42299194 148.91880737 84.07342529 148.30950928 C81.78594361 144.33438769 79.45095411 140.39063279 77.0859375 136.4609375 C76.48120605 135.45401855 75.87647461 134.44709961 75.25341797 133.40966797 C74.10013337 131.49587713 72.94046863 129.5859141 71.77392578 127.68017578 C71.26071777 126.82665527 70.74750977 125.97313477 70.21875 125.09375 C69.76435547 124.34802734 69.30996094 123.60230469 68.84179688 122.83398438 C68.56400391 122.22876953 68.28621094 121.62355469 68 121 C68.33 120.34 68.66 119.68 69 119 C70.32 119 71.64 119 73 119 C73 116.03 73 113.06 73 110 C71.618125 109.71125 70.23625 109.4225 68.8125 109.125 C61.2244152 107.37390351 61.2244152 107.37390351 59 106 C58.32335464 104.40891058 57.65150488 102.81565929 57 101.21411133 C54.87217998 96.50288093 52.07484725 92.12636587 49.4375 87.6875 C45.1684134 80.43904957 40.93171817 73.18217672 36.875 65.8125 C33.40274149 59.51327624 29.88300628 53.24412489 26.3125 47 C25.82241455 46.14277344 25.3323291 45.28554688 24.82739258 44.40234375 C21.92668123 39.33847631 19.0078471 34.28541935 16.078125 29.23828125 C15.40448969 28.07620163 14.73090564 26.91409229 14.05737305 25.75195312 C12.76204679 23.51862106 11.46417792 21.28676105 10.16333008 19.05664062 C9.56415771 18.02345703 8.96498535 16.99027344 8.34765625 15.92578125 C7.82179932 15.02255127 7.29594238 14.11932129 6.75415039 13.1887207 C4.37349045 8.86112161 2.20887554 4.41775107 0 0 Z " fill="#058EFB" transform="translate(750,372)"/>
<path d="M0 0 C0.91275696 0.00060425 1.82551392 0.0012085 2.76593018 0.00183105 C26.40374636 0.04403868 49.44874237 1.95437336 72.81713867 5.61425781 C75.50868873 6.0332011 78.20048189 6.43775005 80.89575195 6.83105469 C91.48951008 8.40293555 101.88034159 10.46988092 112.28979492 12.984375 C114.69554592 13.56444 117.10428146 14.13057733 119.51367188 14.6953125 C128.43772572 16.81134983 137.20000639 19.22068343 145.92895508 22.03662109 C149.60624669 23.22174126 153.29735149 24.33454539 157 25.4375 C166.22896071 28.25821782 175.2132329 31.76373757 184.2265625 35.19921875 C187.95814313 36.6189982 191.69522611 37.9733486 195.5 39.1875 C195.5 42.1575 195.5 45.1275 195.5 48.1875 C194.51326294 47.90869995 194.51326294 47.90869995 193.5065918 47.62426758 C166.80938932 39.89351711 166.80938932 39.89351711 139.69921875 33.86328125 C136.5 33.1875 136.5 33.1875 133.79418945 32.23291016 C130.09755648 31.05978466 126.41387459 30.385863 122.59375 29.78515625 C121.84118423 29.66287659 121.08861847 29.54059692 120.31324768 29.41461182 C117.87638913 29.02059711 115.43836737 28.63455981 113 28.25 C112.16177704 28.11677338 111.32355408 27.98354675 110.45993042 27.84628296 C105.50851023 27.05956342 100.55551069 26.2835544 95.60125732 25.51489258 C93.80926644 25.23568617 92.01807107 24.95138183 90.22705078 24.66601562 C59.66486323 19.82165956 28.65857375 18.61839147 -2.23666763 18.74087143 C-4.74000673 18.75019557 -7.24332028 18.75455092 -9.74667358 18.75820923 C-35.50151271 18.81056203 -60.95821857 19.63214666 -86.5 23.1875 C-87.64450623 23.34309387 -87.64450623 23.34309387 -88.81213379 23.50183105 C-101.9499256 25.28950547 -115.01847155 27.18087307 -127.86645508 30.52026367 C-131.17929256 31.35960592 -134.50823063 31.97993541 -137.875 32.5625 C-152.71209882 35.25368553 -167.29100841 38.67069626 -181.68945312 43.15405273 C-187.56338911 44.96605923 -193.39586133 46.37548155 -199.5 47.1875 C-199.5 44.5475 -199.5 41.9075 -199.5 39.1875 C-196.35595863 37.91220247 -193.20944782 36.64310671 -190.0625 35.375 C-189.18400391 35.01857422 -188.30550781 34.66214844 -187.40039062 34.29492188 C-182.5480557 32.34324473 -177.68851909 30.52480451 -172.71411133 28.90942383 C-170.44635508 28.17000876 -168.19397427 27.39375775 -165.94140625 26.609375 C-125.43070515 12.64634243 -82.31924108 3.77055551 -39.5 1.1875 C-38.84445129 1.14619965 -38.18890259 1.10489929 -37.51348877 1.06234741 C-25.00476236 0.28467971 -12.53179697 -0.0155221 0 0 Z " fill="#F6FBFD" transform="translate(627.5,442.8125)"/>
<path d="M0 0 C7.29064607 3.92678865 11.28733683 10.08026283 14.19067383 17.64160156 C15.63816894 22.75390103 15.53622633 27.7854182 15.4375 33.0625 C15.44458984 34.13435547 15.45167969 35.20621094 15.45898438 36.31054688 C15.38159441 46.04382344 13.32050598 55.86105974 6.43359375 63.16015625 C-0.1172359 69.1247819 -6.25113425 71.03848302 -15.0625 70.78515625 C-21.90186027 70.12122899 -26.46909258 67.78605865 -31 62.5 C-31.680625 61.819375 -32.36125 61.13875 -33.0625 60.4375 C-40.71526672 48.83491819 -41.21610442 32.71713128 -38.57226562 19.33496094 C-36.06267952 10.53275095 -30.83603934 4.09941439 -23 -0.5 C-16.18100672 -2.77299776 -6.72682763 -2.64185099 0 0 Z " fill="#F7FBFD" transform="translate(620,616.5)"/>
<path d="M0 0 C5.94 0 11.88 0 18 0 C20.65598853 5.31197705 23.00285422 10.33974279 25 15.875 C25.51741516 17.28154971 26.03564297 18.68780075 26.5546875 20.09375 C26.9254541 21.10115234 26.9254541 21.10115234 27.30371094 22.12890625 C28.78840841 26.11864028 30.40070258 30.05506636 32 34 C33.32 37.3 34.64 40.6 36 44 C36.33 29.48 36.66 14.96 37 0 C41.62 0 46.24 0 51 0 C51 23.43 51 46.86 51 71 C44.73 71 38.46 71 32 71 C25.88610981 55.37561395 19.93936271 39.69164964 14 24 C13.67 39.51 13.34 55.02 13 71 C8.71 71 4.42 71 0 71 C0 47.57 0 24.14 0 0 Z " fill="#F3F9FD" transform="translate(521,615)"/>
<path d="M0 0 C5.94 0 11.88 0 18 0 C22.55255747 10.4846778 26.30008764 21.19054647 30 32 C32.66178221 29.33821779 33.2101855 26.82020322 34.3828125 23.2421875 C34.60194305 22.57913605 34.82107361 21.91608459 35.04684448 21.23294067 C35.74521718 19.11543826 36.43519242 16.99530624 37.125 14.875 C37.59710565 13.438621 38.06975533 12.00242068 38.54296875 10.56640625 C39.7026717 7.04660607 40.85098133 3.52337459 42 0 C48.27 0 54.54 0 61 0 C61 17.16 61 34.32 61 52 C56.71 52 52.42 52 48 52 C47.67 41.11 47.34 30.22 47 19 C43.37 29.89 39.74 40.78 36 52 C32.37 52 28.74 52 25 52 C22.01418205 44.6968507 19.31315344 37.33587817 16.75 29.875 C15.5125 26.28625 14.275 22.6975 13 19 C12.67 29.89 12.34 40.78 12 52 C8.04 52 4.08 52 0 52 C0 34.84 0 17.68 0 0 Z " fill="#F7FBFD" transform="translate(391,841)"/>
<path d="M0 0 C6.58706923 0.12840291 13.53671397 2.77536962 18.34375 7.27734375 C24.38666065 14.99390368 25.01962285 22.83445364 24.3125 32.375 C23.1720991 39.294071 20.78177358 44.84331618 15.3125 49.375 C8.52108656 53.99864915 1.30032071 54.19553109 -6.6875 53.375 C-13.11887547 52.06035119 -17.99973784 49.82963059 -22.09765625 44.5625 C-25.68183528 38.8118395 -26.18031951 33.36325394 -26.25 26.75 C-26.26458252 25.95070068 -26.27916504 25.15140137 -26.29418945 24.32788086 C-26.18050881 17.64828185 -24.35047558 12.40004682 -19.90625 7.3515625 C-19.3390625 6.90554688 -18.771875 6.45953125 -18.1875 6 C-17.6203125 5.53851562 -17.053125 5.07703125 -16.46875 4.6015625 C-11.23026974 0.99436337 -6.24426551 0.63501005 0 0 Z " fill="#F9FBFD" transform="translate(487.6875,839.625)"/>
<path d="M0 0 C4.62 0 9.24 0 14 0 C14 8.58 14 17.16 14 26 C14.66 26 15.32 26 16 26 C16.12076904 25.41589355 16.24153809 24.83178711 16.3659668 24.22998047 C17.0183066 21.93561323 17.86965056 20.32721122 19.14453125 18.3203125 C19.57443359 17.63839844 20.00433594 16.95648437 20.44726562 16.25390625 C21.12305664 15.20009766 21.12305664 15.20009766 21.8125 14.125 C22.25142578 13.43019531 22.69035156 12.73539063 23.14257812 12.01953125 C24.01122579 10.6487975 24.89113233 9.2851271 25.78271484 7.92919922 C27.17512828 5.78733696 27.17512828 5.78733696 28.77734375 2.515625 C31 0 31 0 32.90356445 -0.46337891 C35.21645509 -0.59188705 37.43873584 -0.52448475 39.75 -0.375 C40.93916016 -0.33439453 40.93916016 -0.33439453 42.15234375 -0.29296875 C44.10273366 -0.22247273 46.05171901 -0.11485499 48 0 C46.5612968 3.06056154 44.86478177 5.7565266 42.91796875 8.51953125 C42.01401367 9.80633789 42.01401367 9.80633789 41.09179688 11.11914062 C40.46337891 12.00794922 39.83496094 12.89675781 39.1875 13.8125 C38.57068359 14.68970703 37.95386719 15.56691406 37.31835938 16.47070312 C36.71185547 17.33244141 36.10535156 18.19417969 35.48046875 19.08203125 C34.89185059 19.9220166 34.30323242 20.76200195 33.69677734 21.62744141 C32.6263193 23.1242344 31.53059359 24.60356348 30.40087891 26.05615234 C28.81957705 28.04935067 28.81957705 28.04935067 27 31 C27.51108759 34.60419654 29.13691769 36.96000202 31.1875 39.9375 C31.89261719 40.97519531 32.59773437 42.01289062 33.32421875 43.08203125 C33.73462402 43.68225098 34.1450293 44.2824707 34.56787109 44.90087891 C37.56582805 49.29508857 40.53383705 53.70929588 43.5 58.125 C44.13574951 59.06206787 44.77149902 59.99913574 45.42651367 60.96459961 C46.31367065 62.28536499 46.31367065 62.28536499 47.21875 63.6328125 C47.75435547 64.42574707 48.28996094 65.21868164 48.84179688 66.03564453 C50 68 50 68 50 70 C44.26681272 71.37429913 38.56539035 72.44863109 33 70 C27.45092513 64.58698173 23.88361055 57.41576651 20.35595703 50.5871582 C19.00219789 48.00419356 17.50038555 45.50064259 16 43 C15.67 51.91 15.34 60.82 15 70 C10.05 70 5.1 70 0 70 C0 46.9 0 23.8 0 0 Z " fill="#F7FAFD" transform="translate(767,616)"/>
<path d="M0 0 C29.65789474 0 29.65789474 0 37.4375 5.375 C41.60488406 9.64402758 43.37516964 12.68582467 43.41015625 18.78515625 C43.39855469 19.47480469 43.38695312 20.16445313 43.375 20.875 C43.38660156 21.55691406 43.39820313 22.23882813 43.41015625 22.94140625 C43.3772385 28.70201207 42.19709859 33.43324739 38.3515625 37.92578125 C37.78179688 38.38339844 37.21203125 38.84101562 36.625 39.3125 C36.06039062 39.78300781 35.49578125 40.25351562 34.9140625 40.73828125 C27.98724962 45.30432321 24.11319543 44 15 44 C15 52.91 15 61.82 15 71 C10.05 71 5.1 71 0 71 C0 47.57 0 24.14 0 0 Z " fill="#F5FAFD" transform="translate(644,615)"/>
<path d="M0 0 C12.21 0 24.42 0 37 0 C37 3.63 37 7.26 37 11 C29.41 11 21.82 11 14 11 C14 16.61 14 22.22 14 28 C21.26 28 28.52 28 36 28 C36 31.63 36 35.26 36 39 C28.74 39 21.48 39 14 39 C14 45.27 14 51.54 14 58 C21.92 58 29.84 58 38 58 C38 61.63 38 65.26 38 69 C25.46 69 12.92 69 0 69 C0 46.23 0 23.46 0 0 Z " fill="#FAFCFD" transform="translate(473,616)"/>
<path d="M0 0 C4.455 -0.103125 8.91 -0.20625 13.5 -0.3125 C15.58344727 -0.38078003 15.58344727 -0.38078003 17.70898438 -0.45043945 C24.9946187 -0.5318931 30.54755462 -0.20207799 36 5 C38.73850385 9.02217753 39.69017718 12.16875973 39 17 C37.20434989 21.30956026 35.05840532 24.5359682 31 27 C31.58265625 27.46148438 32.1653125 27.92296875 32.765625 28.3984375 C35.9238198 32.07563634 37.17201841 36.08745638 38.75 40.625 C39.06582031 41.49640625 39.38164063 42.3678125 39.70703125 43.265625 C42 49.67799648 42 49.67799648 42 52 C37.38 52 32.76 52 28 52 C27.566875 50.700625 27.13375 49.40125 26.6875 48.0625 C26.41421875 47.2478125 26.1409375 46.433125 25.859375 45.59375 C25.29472362 43.88952947 24.74223632 42.18122125 24.203125 40.46875 C23.95046875 39.6746875 23.6978125 38.880625 23.4375 38.0625 C23.20933594 37.33160156 22.98117187 36.60070312 22.74609375 35.84765625 C22.05832289 33.79771903 22.05832289 33.79771903 20 32 C17.36 31.67 14.72 31.34 12 31 C12 37.6 12 44.2 12 51 C8.04 51 4.08 51 0 51 C0 34.17 0 17.34 0 0 Z " fill="#F9FBFD" transform="translate(522,841)"/>
<path d="M0 0 C4.29 0 8.58 0 13 0 C13 6.27 13 12.54 13 19 C18.61 19 24.22 19 30 19 C30 12.73 30 6.46 30 0 C34.29 0 38.58 0 43 0 C43 16.83 43 33.66 43 51 C39.04 51 35.08 51 31 51 C31 44.07 31 37.14 31 30 C24.73 30 18.46 30 12 30 C12 36.93 12 43.86 12 51 C8.04 51 4.08 51 0 51 C0 34.17 0 17.34 0 0 Z " fill="#F8FBFD" transform="translate(765,841)"/>
<path d="M0 0 C0 3.63 0 7.26 0 11 C-5.75 10.125 -5.75 10.125 -8 9 C-15.40188017 8.31484873 -21.0515955 8.31721348 -27 13 C-31.14781679 18.60199256 -30.62366842 24.29977846 -30 31 C-28.48488802 35.39382474 -26.88712192 37.54388934 -23 40 C-20.52356314 40.57089653 -20.52356314 40.57089653 -17.9375 40.6875 C-16.65166016 40.78611328 -16.65166016 40.78611328 -15.33984375 40.88671875 C-13.56157818 40.97281174 -11.7803484 41 -10 41 C-10 37.7 -10 34.4 -10 31 C-12.64 31 -15.28 31 -18 31 C-18 28.03 -18 25.06 -18 22 C-11.4 22 -4.8 22 2 22 C2 30.91 2 39.82 2 49 C-4.86980794 50.37396159 -10.75814386 51.36374286 -17.625 51.375 C-18.4190625 51.39949219 -19.213125 51.42398438 -20.03125 51.44921875 C-26.90933536 51.4830454 -31.94139406 49.57680784 -37.20703125 45.140625 C-43.98705544 37.15636293 -45.6211716 30.88401143 -45.33984375 20.33984375 C-44.66332999 13.69134642 -42.13061581 9.82270751 -37.375 5.25 C-25.85796311 -4.0358766 -13.7682207 -2.89857278 0 0 Z " fill="#F4F9FD" transform="translate(752,842)"/>
<path d="M0 0 C13.86 0 27.72 0 42 0 C42 4.29 42 8.58 42 13 C37.38 13 32.76 13 28 13 C28 32.14 28 51.28 28 71 C23.05 71 18.1 71 13 71 C13 51.53 13 32.06 13 12 C8.71 12 4.42 12 0 12 C0 8.04 0 4.08 0 0 Z " fill="#F2F9FD" transform="translate(691,615)"/>
<path d="M0 0 C11.55 0 23.1 0 35 0 C35 3.3 35 6.6 35 10 C27.74 10 20.48 10 13 10 C13 13.63 13 17.26 13 21 C19.93 21 26.86 21 34 21 C34 23.97 34 26.94 34 30 C27.07 30 20.14 30 13 30 C13 33.96 13 37.92 13 42 C20.59 42 28.18 42 36 42 C36 45.3 36 48.6 36 52 C24.12 52 12.24 52 0 52 C0 34.84 0 17.68 0 0 Z " fill="#F6FAFD" transform="translate(573,841)"/>
<path d="M0 0 C4.62 0 9.24 0 14 0 C14.11334126 7.42402684 14.20490962 14.8475743 14.25906086 22.27228546 C14.28506206 25.72058981 14.32028189 29.16826729 14.37719727 32.61621094 C14.44234009 36.58781206 14.46625905 40.55916684 14.48828125 44.53125 C14.51408768 45.75863892 14.5398941 46.98602783 14.56648254 48.25061035 C14.56921302 56.6418472 13.09404264 61.4406513 7.5214386 67.64660645 C4.14075458 70.65388914 0.2192623 70.13385576 -4.0625 70.125 C-5.31160156 70.12757813 -6.56070312 70.13015625 -7.84765625 70.1328125 C-11 70 -11 70 -13 69 C-13 65.04 -13 61.08 -13 57 C-9.7 57 -6.4 57 -3 57 C-1.37982211 53.41903605 -0.73840417 50.58068555 -0.68115234 46.65893555 C-0.66128265 45.6182341 -0.64141296 44.57753265 -0.62094116 43.5052948 C-0.60938995 42.3936647 -0.59783875 41.28203461 -0.5859375 40.13671875 C-0.56657135 38.98959915 -0.5472052 37.84247955 -0.5272522 36.66059875 C-0.46755533 33.0029744 -0.42110998 29.34531841 -0.375 25.6875 C-0.33681117 23.20506453 -0.29775892 20.72264218 -0.2578125 18.24023438 C-0.16186165 12.16026304 -0.07779355 6.08022968 0 0 Z " fill="#FBFDFD" transform="translate(447,616)"/>
<path d="M0 0 C4.95 0 9.9 0 15 0 C15 23.43 15 46.86 15 71 C10.05 71 5.1 71 0 71 C0 47.57 0 24.14 0 0 Z " fill="#F3F9FD" transform="translate(741,615)"/>
<path d="M0 0 C4.37292527 2.10236792 6.58540608 4.21082583 8.39794922 8.72338867 C9.70710604 13.67387015 9.46910712 18.78912759 9.4375 23.875 C9.4674707 25.57462891 9.4674707 25.57462891 9.49804688 27.30859375 C9.49345442 35.23517605 8.43730272 41.79885223 3.3125 48.0625 C-0.47246671 49.59694596 -4.00220019 49.87808817 -8 49 C-12.701756 44.79843081 -14.67767054 40.19041956 -15.30639648 33.96728516 C-15.37658196 30.51945687 -15.42084938 27.07352785 -15.4375 23.625 C-15.47037109 22.43132813 -15.50324219 21.23765625 -15.53710938 20.0078125 C-15.58087898 12.81368142 -15.06217888 7.41275527 -10 2 C-6.24543433 -0.50304378 -4.45254066 -0.45280074 0 0 Z " fill="#5ABCFB" transform="translate(611,626)"/>
<path d="M0 0 C73.59 0 147.18 0 223 0 C223 0.33 223 0.66 223 1 C149.74 1 76.48 1 1 1 C1.09041561 59.91019227 1.09041561 59.91019227 1.20898438 118.8203125 C1.22703535 126.75553335 1.24489944 134.69075459 1.26245117 142.62597656 C1.26465886 143.62056798 1.26686655 144.6151594 1.26914114 145.63988996 C1.30453963 161.71017989 1.32938189 177.78046977 1.35034702 193.85078427 C1.37208685 210.33545577 1.4051199 226.82007654 1.44870156 243.3047049 C1.47524967 253.48182021 1.49292175 263.65887227 1.49934604 273.8360205 C1.50459028 280.80884283 1.52077467 287.7815855 1.54566566 294.75436518 C1.55971384 298.78112945 1.56883916 302.807751 1.56500816 306.83454132 C1.56160954 310.51844846 1.57189513 314.20205025 1.59323552 317.88589481 C1.60103627 319.85531589 1.59404066 321.82477825 1.58658296 323.79420066 C1.5960395 324.95865218 1.60549604 326.12310371 1.61523914 327.32284164 C1.61713775 328.32985996 1.61903635 329.33687828 1.62099248 330.3744123 C2.0606431 333.42010719 3.00445667 334.70696011 5 337 C5.94488453 338.65083275 6.85956236 340.3191739 7.75 342 C10.57905076 347.28136862 13.59447872 352.43106957 16.6796875 357.56640625 C18 360 18 360 18 362 C50.01 362 82.02 362 115 362 C115 362.33 115 362.66 115 363 C77.05 363 39.1 363 0 363 C0 243.21 0 123.42 0 0 Z " fill="#95D3FA" transform="translate(401,371)"/>
<path d="M0 0 C4.62 0 9.24 0 14 0 C14 13.53 14 27.06 14 41 C20.93 41 27.86 41 35 41 C35 44.63 35 48.26 35 52 C23.45 52 11.9 52 0 52 C0 34.84 0 17.68 0 0 Z " fill="#F1F8FD" transform="translate(640,841)"/>
<path d="M0 0 C14.52 0 29.04 0 44 0 C44 3.63 44 7.26 44 11 C38.72 11 33.44 11 28 11 C28 24.2 28 37.4 28 51 C24.04 51 20.08 51 16 51 C16 37.47 16 23.94 16 10 C10.72 10 5.44 10 0 10 C0 6.7 0 3.4 0 0 Z " fill="#FAFCFD" transform="translate(816,841)"/>
<path d="M0 0 C4.02705344 1.5920909 6.27249778 3.98791407 8.26953125 7.8515625 C10.66177815 14.88758279 9.2986274 21.59979577 6.16796875 28.125 C4.91331544 30.13915916 3.88911878 31.5532978 2 33 C-2.71905306 33.88782185 -6.80881046 33.67004412 -11 31.3125 C-14.93970945 26.75721095 -15.31543657 22.47714836 -15.375 16.5625 C-15.40335937 15.28503906 -15.43171875 14.00757813 -15.4609375 12.69140625 C-14.83224774 7.65656032 -12.65689841 4.71403284 -9.1875 1.125 C-5.96860302 -0.53043273 -3.56753756 -0.37553027 0 0 Z " fill="#90D4FA" transform="translate(490,850)"/>
<path d="M0 0 C3.96 0 7.92 0 12 0 C12 16.83 12 33.66 12 51 C8.04 51 4.08 51 0 51 C0 34.17 0 17.34 0 0 Z " fill="#FBFDFE" transform="translate(685,841)"/>
<path d="M0 0 C0.97138094 1.40682757 1.93538756 2.81976519 2.84765625 4.265625 C4.68455093 7.03030717 6.84130311 9.48152029 9 12 C8 13 8 13 5.4375 13.0625 C4.633125 13.041875 3.82875 13.02125 3 13 C3 15.97 3 18.94 3 22 C5.64 22 8.28 22 11 22 C11 25.3 11 28.6 11 32 C4.44416701 33.10944866 0.83326485 33.26662832 -5 30 C-7.91189143 27.79097891 -8.83208615 25.42715703 -10 22 C-10.71924551 16.01890573 -11.26807977 9.93531744 -7.6875 4.8125 C-3.08888889 0 -3.08888889 0 0 0 Z " fill="#6FC5FB" transform="translate(731,851)"/>
<path d="M0 0 C8.25 0 8.25 0 12 3 C14.32205393 5.98549791 14.49255395 9.29811569 14.3671875 13.03125 C14 15 14 15 12.0625 17.9375 C9 20 9 20 0 21 C0 14.07 0 7.14 0 0 Z " fill="#51B7FB" transform="translate(659,627)"/>
<path d="M0 0 C12.87 0 25.74 0 39 0 C39 4.29 39 8.58 39 13 C31.74 13.33 24.48 13.66 17 14 C16.67 18.62 16.34 23.24 16 28 C22.93 28 29.86 28 37 28 C37 28.33 37 28.66 37 29 C29.74 29 22.48 29 15 29 C15 23.39 15 17.78 15 12 C22.59 12 30.18 12 38 12 C38 8.37 38 4.74 38 1 C25.79 1 13.58 1 1 1 C1 23.77 1 46.54 1 70 C13.54 70 26.08 70 39 70 C39 70.33 39 70.66 39 71 C26.13 71 13.26 71 0 71 C0 47.57 0 24.14 0 0 Z " fill="#BBE2FB" transform="translate(472,615)"/>
<path d="M0 0 C9.641373 -0.28356979 9.641373 -0.28356979 13 2 C14.0625 5.375 14.0625 5.375 14 9 C12.125 11.4375 12.125 11.4375 9 13 C5.91489903 13.31417556 3.11676965 13.1860758 0 13 C0 8.71 0 4.42 0 0 Z " fill="#89CEFA" transform="translate(534,850)"/>
<path d="M0 0 C0.66 0.33 1.32 0.66 2 1 C2.73075648 3.3140622 3.40138258 5.64828869 4 8 C3.01 7.67 2.02 7.34 1 7 C1.15210938 7.92296875 1.30421875 8.8459375 1.4609375 9.796875 C2.19054695 14.92734425 2.39569676 20.07718862 2.625 25.25 C2.6765625 26.22324219 2.728125 27.19648437 2.78125 28.19921875 C3.07851844 34.78284039 3.26857236 41.50200994 2 48 C0 50 0 50 -2.8203125 50.1953125 C-3.91085937 50.17210937 -5.00140625 50.14890625 -6.125 50.125 C-7.22070312 50.10695313 -8.31640625 50.08890625 -9.4453125 50.0703125 C-10.28835938 50.04710937 -11.13140625 50.02390625 -12 50 C-12.33 49.34 -12.66 48.68 -13 48 C-8.71 48 -4.42 48 0 48 C0 32.16 0 16.32 0 0 Z " fill="#71C3FA" transform="translate(534,638)"/>
<path d="M0 0 C4.1889125 0.16111202 6.34705265 0.38053713 9.4375 3.3125 C12.15219902 8.01412767 11.30448056 13.77308374 11 19 C8.03073619 15.44608026 5.57681464 11.81482005 3.25 7.8125 C2.63640625 6.76707031 2.0228125 5.72164062 1.390625 4.64453125 C0 2 0 2 0 0 Z " fill="#77C7F9" transform="translate(487,851)"/>
<path d="M0 0 C0.33 0 0.66 0 1 0 C1 4.29 1 8.58 1 13 C-9.89 13.495 -9.89 13.495 -21 14 C-21.33 18.62 -21.66 23.24 -22 28 C-15.07 28 -8.14 28 -1 28 C-1 28.33 -1 28.66 -1 29 C-8.26 29 -15.52 29 -23 29 C-23 23.39 -23 17.78 -23 12 C-15.41 12 -7.82 12 0 12 C0 8.04 0 4.08 0 0 Z " fill="#95D3FB" transform="translate(510,615)"/>
<path d="M0 0 C3.02859816 2.93682246 5.95664594 5.95704894 8.8125 9.0625 C9.71935547 10.03896484 9.71935547 10.03896484 10.64453125 11.03515625 C12 13 12 13 12 17 C8.97123673 15.95559887 8.10108437 15.18898381 6.5625 12.3125 C6.046875 11.219375 5.53125 10.12625 5 9 C4.12641362 7.73435226 3.22984823 6.4842972 2.3125 5.25 C0 2 0 2 0 0 Z " fill="#2EA9FB" transform="translate(1236,1230)"/>
<path d="M0 0 C6.27 0 12.54 0 19 0 C18.67 0.66 18.34 1.32 18 2 C16.1746875 1.9690625 16.1746875 1.9690625 14.3125 1.9375 C11.78227715 1.92413615 9.79488791 2.04770049 7.3125 2.625 C4.34571733 3.10609989 2.66150992 2.29273339 0 1 C0 0.67 0 0.34 0 0 Z " fill="#6DC4FB" transform="translate(553,686)"/>
<path d="M0 0 C1.98 0.495 1.98 0.495 4 1 C4 3.97 4 6.94 4 10 C2.35 9.67 0.7 9.34 -1 9 C-0.67 6.03 -0.34 3.06 0 0 Z " fill="#E0F1FD" transform="translate(819,481)"/>
<path d="M0 0 C0.66 0 1.32 0 2 0 C3.4049404 3.89060419 2.69513239 7.23092362 2.0625 11.25 C1.86785156 12.51328125 1.67320312 13.7765625 1.47265625 15.078125 C1.31667969 16.04234375 1.16070313 17.0065625 1 18 C0.67 18 0.34 18 0 18 C0 12.06 0 6.12 0 0 Z " fill="#66C0FA" transform="translate(572,668)"/>
<path d="M0 0 C0.33 0 0.66 0 1 0 C1 4.62 1 9.24 1 14 C-1.26185454 11.73814546 -2.03921617 10.03016439 -3 7 C-2.67 6.01 -2.34 5.02 -2 4 C-1.67 4.66 -1.34 5.32 -1 6 C-0.67 4.02 -0.34 2.04 0 0 Z " fill="#6BC3FB" transform="translate(557,647)"/>
<path d="M0 0 C0.99 0.495 0.99 0.495 2 1 C2.73075648 3.3140622 3.40138258 5.64828869 4 8 C2.68 7.67 1.36 7.34 0 7 C0 4.69 0 2.38 0 0 Z " fill="#88CAFB" transform="translate(534,638)"/>
<path d="M0 0 C0.66 0.66 1.32 1.32 2 2 C1.75 4.5625 1.75 4.5625 1 7 C0.01 7.495 0.01 7.495 -1 8 C-1.04241723 5.66705225 -1.04092937 3.33297433 -1 1 C-0.67 0.67 -0.34 0.34 0 0 Z " fill="#44B2FC" transform="translate(784,631)"/>
</svg>
